M48
;DRILL file {KiCad 4.0.7} date 04/26/18 17:17:09
;FORMAT={-:-/ absolute / metric / decimal}
FMAT,2
METRIC,TZ
T1C0.762
T2C0.800
T3C1.000
T4C3.200
T5C3.500
%
G90
G05
M71
T1
X9.652Y23.368
X9.652Y18.288
X32.004Y30.48
X32.004Y25.4
T2
X26.924Y23.876
X37.846Y28.448
T3
X4.064Y42.926
X4.064Y40.386
X4.064Y37.846
X4.064Y30.226
X4.064Y27.686
X4.064Y25.146
X4.064Y20.32
X4.064Y17.78
X4.064Y15.24
X11.684Y4.318
X13.208Y52.578
X13.208Y50.038
X13.208Y47.498
X16.764Y4.318
X18.542Y48.768
X21.082Y48.768
X23.622Y48.768
X26.162Y48.768
X27.686Y2.032
X28.702Y48.768
X30.226Y2.032
X31.242Y48.768
X32.766Y2.032
X40.64Y40.386
X40.64Y37.846
X40.64Y35.306
X40.64Y32.766
X40.64Y30.226
X40.64Y27.686
X40.64Y25.146
X40.64Y22.606
X40.64Y20.066
T4
X4.826Y50.038
X4.826Y5.08
X39.878Y50.546
X39.878Y5.08
T5
X30.226Y18.692
T0
M30
