G04 #@! TF.FileFunction,Copper,L1,Top,Signal*
%FSLAX46Y46*%
G04 Gerber Fmt 4.6, Leading zero omitted, Abs format (unit mm)*
G04 Created by KiCad (PCBNEW 4.0.7) date 04/26/18 17:15:38*
%MOMM*%
%LPD*%
G01*
G04 APERTURE LIST*
%ADD10C,0.100000*%
%ADD11R,1.500000X1.250000*%
%ADD12R,1.250000X1.500000*%
%ADD13R,3.000000X3.000000*%
%ADD14C,3.000000*%
%ADD15R,1.700000X1.700000*%
%ADD16O,1.700000X1.700000*%
%ADD17R,1.500000X1.300000*%
%ADD18R,1.600000X0.550000*%
%ADD19R,0.550000X1.600000*%
%ADD20R,2.000000X7.875000*%
%ADD21R,1.800000X1.800000*%
%ADD22O,1.800000X1.800000*%
%ADD23C,1.524000*%
%ADD24R,3.200000X2.500000*%
%ADD25C,1.000000*%
%ADD26C,0.400000*%
%ADD27C,1.000000*%
%ADD28C,0.254000*%
G04 APERTURE END LIST*
D10*
D11*
X37318000Y23622000D03*
X34818000Y23622000D03*
X18562000Y51816000D03*
X21062000Y51816000D03*
D12*
X23368000Y3830000D03*
X23368000Y6330000D03*
D11*
X31516000Y32766000D03*
X34016000Y32766000D03*
X31516000Y35306000D03*
X34016000Y35306000D03*
D12*
X10414000Y37358000D03*
X10414000Y39858000D03*
X10160000Y31984000D03*
X10160000Y29484000D03*
X40640000Y43708000D03*
X40640000Y46208000D03*
X26670000Y45680000D03*
X26670000Y43180000D03*
D10*
G36*
X32644000Y45938000D02*
X32644000Y44438000D01*
X30644000Y44438000D01*
X30644000Y45938000D01*
X32644000Y45938000D01*
X32644000Y45938000D01*
G37*
G36*
X32644000Y42938000D02*
X32644000Y41438000D01*
X30644000Y41438000D01*
X30644000Y42938000D01*
X32644000Y42938000D01*
X32644000Y42938000D01*
G37*
G36*
X38444000Y42938000D02*
X38444000Y41438000D01*
X36444000Y41438000D01*
X36444000Y42938000D01*
X38444000Y42938000D01*
X38444000Y42938000D01*
G37*
G36*
X38444000Y45938000D02*
X38444000Y44438000D01*
X36444000Y44438000D01*
X36444000Y45938000D01*
X38444000Y45938000D01*
X38444000Y45938000D01*
G37*
G36*
X21474000Y11510000D02*
X21474000Y8810000D01*
X19674000Y8810000D01*
X19674000Y11510000D01*
X21474000Y11510000D01*
X21474000Y11510000D01*
G37*
G36*
X18474000Y11510000D02*
X18474000Y8810000D01*
X16674000Y8810000D01*
X16674000Y11510000D01*
X18474000Y11510000D01*
X18474000Y11510000D01*
G37*
D13*
X11684000Y4318000D03*
D14*
X16764000Y4318000D03*
D15*
X4064000Y15240000D03*
D16*
X4064000Y17780000D03*
X4064000Y20320000D03*
D15*
X4064000Y37846000D03*
D16*
X4064000Y40386000D03*
X4064000Y42926000D03*
D15*
X4064000Y30226000D03*
D16*
X4064000Y27686000D03*
X4064000Y25146000D03*
D15*
X40640000Y40386000D03*
D16*
X40640000Y37846000D03*
X40640000Y35306000D03*
X40640000Y32766000D03*
X40640000Y30226000D03*
X40640000Y27686000D03*
X40640000Y25146000D03*
X40640000Y22606000D03*
X40640000Y20066000D03*
D15*
X13208000Y47498000D03*
D16*
X13208000Y50038000D03*
X13208000Y52578000D03*
D17*
X27686000Y52070000D03*
X24986000Y52070000D03*
D18*
X20134000Y38360000D03*
X20134000Y37560000D03*
X20134000Y36760000D03*
X20134000Y35960000D03*
X20134000Y35160000D03*
X20134000Y34360000D03*
X20134000Y33560000D03*
X20134000Y32760000D03*
D19*
X21584000Y31310000D03*
X22384000Y31310000D03*
X23184000Y31310000D03*
X23984000Y31310000D03*
X24784000Y31310000D03*
X25584000Y31310000D03*
X26384000Y31310000D03*
X27184000Y31310000D03*
D18*
X28634000Y32760000D03*
X28634000Y33560000D03*
X28634000Y34360000D03*
X28634000Y35160000D03*
X28634000Y35960000D03*
X28634000Y36760000D03*
X28634000Y37560000D03*
X28634000Y38360000D03*
D19*
X27184000Y39810000D03*
X26384000Y39810000D03*
X25584000Y39810000D03*
X24784000Y39810000D03*
X23984000Y39810000D03*
X23184000Y39810000D03*
X22384000Y39810000D03*
X21584000Y39810000D03*
D15*
X18542000Y48768000D03*
D16*
X21082000Y48768000D03*
X23622000Y48768000D03*
X26162000Y48768000D03*
X28702000Y48768000D03*
X31242000Y48768000D03*
D20*
X14732000Y38957500D03*
X14732000Y27082500D03*
D21*
X27686000Y2032000D03*
D22*
X30226000Y2032000D03*
X32766000Y2032000D03*
D23*
X32004000Y25400000D03*
X32004000Y30480000D03*
D24*
X42536000Y13462000D03*
X38236000Y13462000D03*
D23*
X9652000Y18288000D03*
X9652000Y23368000D03*
D25*
X26924000Y23876000D03*
X37846000Y28448000D03*
D26*
X37444000Y42188000D02*
X38964000Y43708000D01*
X38964000Y43708000D02*
X40640000Y43708000D01*
X37444000Y42188000D02*
X38264710Y43008710D01*
X43942000Y41656000D02*
X43942000Y52324000D01*
X43942000Y52324000D02*
X42672000Y53594000D01*
X42672000Y53594000D02*
X28160000Y53594000D01*
X28160000Y53594000D02*
X27686000Y53120000D01*
X27686000Y53120000D02*
X27686000Y52070000D01*
X42536000Y13462000D02*
X42536000Y13090000D01*
X42536000Y13090000D02*
X43688000Y11938000D01*
D27*
X42926000Y22606000D02*
X40640000Y22606000D01*
D26*
X43180000Y22606000D02*
X42926000Y22606000D01*
D27*
X32766000Y2032000D02*
X32766000Y5588000D01*
X32766000Y5588000D02*
X36830000Y9652000D01*
X36830000Y9652000D02*
X41402000Y9652000D01*
X41402000Y9652000D02*
X43688000Y11938000D01*
X43688000Y11938000D02*
X43688000Y21844000D01*
X43688000Y21844000D02*
X42926000Y22606000D01*
D26*
X43434000Y22606000D02*
X43180000Y22606000D01*
X36830000Y25400000D02*
X37318000Y24912000D01*
X37318000Y24912000D02*
X37318000Y23622000D01*
X32004000Y25400000D02*
X36830000Y25400000D01*
X37318000Y23622000D02*
X38630696Y22309304D01*
X38630696Y22309304D02*
X40343304Y22309304D01*
X40343304Y22309304D02*
X40640000Y22606000D01*
X43942000Y23114000D02*
X43434000Y22606000D01*
X43942000Y41656000D02*
X43942000Y23114000D01*
X26162000Y48768000D02*
X26162000Y46188000D01*
X26162000Y46188000D02*
X26670000Y45680000D01*
X34544000Y50800000D02*
X33274000Y52070000D01*
X33274000Y52070000D02*
X27686000Y52070000D01*
X34544000Y43988000D02*
X34544000Y50800000D01*
X37444000Y42188000D02*
X36344000Y42188000D01*
X36344000Y42188000D02*
X34544000Y43988000D01*
X21334000Y34360000D02*
X22098000Y33596000D01*
X22098000Y33596000D02*
X22134000Y33560000D01*
X20134000Y35960000D02*
X21334000Y35960000D01*
X21334000Y35960000D02*
X22098000Y35196000D01*
X22098000Y35196000D02*
X22098000Y33596000D01*
X20134000Y34360000D02*
X21334000Y34360000D01*
X22134000Y33560000D02*
X27434000Y33560000D01*
X27434000Y33560000D02*
X28634000Y33560000D01*
X28634000Y33560000D02*
X30722000Y33560000D01*
X30722000Y33560000D02*
X31516000Y32766000D01*
X32004000Y30480000D02*
X32004000Y32278000D01*
X32004000Y32278000D02*
X31516000Y32766000D01*
X26162000Y48768000D02*
X26162000Y50546000D01*
X26162000Y50546000D02*
X27686000Y52070000D01*
X40640000Y30226000D02*
X39624000Y30226000D01*
X39624000Y30226000D02*
X37846000Y28448000D01*
X36068000Y39116000D02*
X36068000Y33782000D01*
X37084000Y40132000D02*
X36068000Y39116000D01*
X39136000Y40132000D02*
X37084000Y40132000D01*
X40640000Y40386000D02*
X39390000Y40386000D01*
X39390000Y40386000D02*
X39136000Y40132000D01*
X42164000Y34798000D02*
X41822001Y34456001D01*
X41822001Y34456001D02*
X41489999Y34456001D01*
X41489999Y34456001D02*
X40640000Y35306000D01*
X42164000Y30547919D02*
X42164000Y34798000D01*
X40640000Y30226000D02*
X41842081Y30226000D01*
X41842081Y30226000D02*
X42164000Y30547919D01*
X17526000Y35352000D02*
X17718000Y35160000D01*
X17718000Y35160000D02*
X20134000Y35160000D01*
X20134000Y36760000D02*
X18934000Y36760000D01*
X18934000Y36760000D02*
X17526000Y35352000D01*
X30440999Y36566999D02*
X31750000Y36566999D01*
X31750000Y36566999D02*
X32630001Y36566999D01*
X32024000Y37592000D02*
X32023999Y36566999D01*
X32023999Y36566999D02*
X31750000Y36566999D01*
X33891000Y35306000D02*
X34016000Y35306000D01*
X32630001Y36566999D02*
X33891000Y35306000D01*
X29834000Y35960000D02*
X30440999Y36566999D01*
X28634000Y35960000D02*
X29834000Y35960000D01*
X25400000Y36830000D02*
X26270000Y35960000D01*
X26270000Y35960000D02*
X28634000Y35960000D01*
X21404000Y36830000D02*
X25400000Y36830000D01*
X20134000Y36760000D02*
X21334000Y36760000D01*
X21334000Y36760000D02*
X21404000Y36830000D01*
X18562000Y51816000D02*
X18562000Y48788000D01*
X18562000Y48788000D02*
X18542000Y48768000D01*
X23984000Y39810000D02*
X23984000Y44558000D01*
X24891184Y51975184D02*
X24986000Y52070000D01*
X23984000Y44558000D02*
X24891184Y45465184D01*
X24891184Y45465184D02*
X24891184Y51975184D01*
X20828000Y53848000D02*
X21062000Y53614000D01*
X21062000Y53614000D02*
X21062000Y51816000D01*
X16764000Y53848000D02*
X20828000Y53848000D01*
X16256000Y53340000D02*
X16764000Y53848000D01*
X16256000Y51883919D02*
X16256000Y53340000D01*
X13208000Y50038000D02*
X14410081Y50038000D01*
X14410081Y50038000D02*
X16256000Y51883919D01*
X24986000Y52070000D02*
X22678002Y52070000D01*
X22678002Y52070000D02*
X22424002Y51816000D01*
X21062000Y51816000D02*
X22424002Y51816000D01*
X2814000Y15240000D02*
X1778000Y16276000D01*
X1778000Y16276000D02*
X1778000Y31750000D01*
X4064000Y15240000D02*
X2814000Y15240000D01*
X4064000Y15240000D02*
X4064000Y13462000D01*
X4064000Y13462000D02*
X8890000Y8636000D01*
X1778000Y37084000D02*
X2540000Y37846000D01*
X2540000Y37846000D02*
X4064000Y37846000D01*
X1778000Y31750000D02*
X1778000Y37084000D01*
X8890000Y8636000D02*
X8890000Y2794000D01*
X8890000Y2794000D02*
X10922000Y762000D01*
X10922000Y762000D02*
X18672216Y762000D01*
X18672216Y762000D02*
X20574000Y2663784D01*
D27*
X27686000Y2032000D02*
X23622000Y2032000D01*
X23622000Y2032000D02*
X21205784Y2032000D01*
D26*
X23368000Y3830000D02*
X23368000Y2286000D01*
X23368000Y2286000D02*
X23622000Y2032000D01*
D27*
X21205784Y2032000D02*
X20574000Y2663784D01*
X20574000Y2663784D02*
X20574000Y10160000D01*
D26*
X20574000Y10160000D02*
X20574000Y8710000D01*
X1778000Y31262000D02*
X1778000Y31750000D01*
X4064000Y30226000D02*
X2814000Y30226000D01*
X2814000Y30226000D02*
X1778000Y31262000D01*
X28634000Y35160000D02*
X31370000Y35160000D01*
X31370000Y35160000D02*
X31516000Y35306000D01*
X10648000Y40386000D02*
X13303500Y40386000D01*
X13303500Y40386000D02*
X14732000Y38957500D01*
X15716000Y33560000D02*
X14732000Y34544000D01*
X14732000Y34544000D02*
X14732000Y38957500D01*
X20134000Y33560000D02*
X15716000Y33560000D01*
X10160000Y29484000D02*
X12330500Y29484000D01*
X12330500Y29484000D02*
X14732000Y27082500D01*
X15742000Y32760000D02*
X14732000Y31750000D01*
X14732000Y31750000D02*
X14732000Y27082500D01*
X20134000Y32760000D02*
X15742000Y32760000D01*
X28634000Y38360000D02*
X28634000Y40713335D01*
X28634000Y40713335D02*
X30264954Y42344289D01*
X30264954Y42344289D02*
X31644000Y42344289D01*
X31644000Y42344289D02*
X31644000Y42188000D01*
D27*
X17574000Y10160000D02*
X17574000Y5128000D01*
X17574000Y5128000D02*
X16764000Y4318000D01*
D26*
X21082000Y48768000D02*
X22384000Y47466000D01*
X22384000Y47466000D02*
X22384000Y39810000D01*
X23622000Y48768000D02*
X23622000Y47565919D01*
X23622000Y47565919D02*
X23184000Y47127919D01*
X23184000Y47127919D02*
X23184000Y41010000D01*
X23184000Y41010000D02*
X23184000Y39810000D01*
X4064000Y20320000D02*
X17078443Y20320000D01*
X17078443Y20320000D02*
X23184000Y26425557D01*
X23184000Y26425557D02*
X23184000Y31310000D01*
X19558000Y44450000D02*
X21584000Y42424000D01*
X21584000Y42424000D02*
X21584000Y39810000D01*
X6790081Y44450000D02*
X19558000Y44450000D01*
X4064000Y42926000D02*
X5266081Y42926000D01*
X5266081Y42926000D02*
X6790081Y44450000D01*
X4064000Y25146000D02*
X7788727Y21421273D01*
X7788727Y21421273D02*
X16561928Y21421273D01*
X22384000Y27243345D02*
X22384000Y30110000D01*
X16561928Y21421273D02*
X22384000Y27243345D01*
X22384000Y30110000D02*
X22384000Y31310000D01*
X25584000Y31310000D02*
X25584000Y29447457D01*
X25584000Y29447457D02*
X26622235Y28409222D01*
X39790001Y36996001D02*
X40640000Y37846000D01*
X26622235Y28409222D02*
X33997222Y28409222D01*
X33997222Y28409222D02*
X37846000Y32258000D01*
X37846000Y32258000D02*
X37846000Y35052000D01*
X37846000Y35052000D02*
X39790001Y36996001D01*
X24784000Y31310000D02*
X24784000Y29232768D01*
X24784000Y29232768D02*
X26386165Y27630603D01*
X26386165Y27630603D02*
X34621922Y27630603D01*
X34621922Y27630603D02*
X39812717Y32821398D01*
X39812717Y32821398D02*
X40584602Y32821398D01*
X40584602Y32821398D02*
X40640000Y32766000D01*
X40640000Y27686000D02*
X39805984Y26851984D01*
X39805984Y26851984D02*
X25837501Y26851984D01*
X25837501Y26851984D02*
X23984000Y28705485D01*
X23984000Y30110000D02*
X23984000Y31310000D01*
X23984000Y28705485D02*
X23984000Y30110000D01*
X26384000Y30110000D02*
X26384000Y31310000D01*
X33408514Y29090514D02*
X27403486Y29090514D01*
X36668011Y32350011D02*
X33408514Y29090514D01*
X27403486Y29090514D02*
X26384000Y30110000D01*
X42122832Y39108739D02*
X38288540Y39108739D01*
X43024521Y38207050D02*
X42122832Y39108739D01*
X43024521Y27530521D02*
X43024521Y38207050D01*
X36668011Y37488210D02*
X36668011Y32350011D01*
X40640000Y25146000D02*
X43024521Y27530521D01*
X38288540Y39108739D02*
X36668011Y37488210D01*
D28*
G36*
X12128853Y53628054D02*
X11806946Y53146285D01*
X11693907Y52578000D01*
X11806946Y52009715D01*
X12128853Y51527946D01*
X12458026Y51308000D01*
X12128853Y51088054D01*
X11806946Y50606285D01*
X11693907Y50038000D01*
X11806946Y49469715D01*
X12128853Y48987946D01*
X12172777Y48958597D01*
X11998302Y48886327D01*
X11819673Y48707699D01*
X11723000Y48474310D01*
X11723000Y47783750D01*
X11881750Y47625000D01*
X13081000Y47625000D01*
X13081000Y47645000D01*
X13335000Y47645000D01*
X13335000Y47625000D01*
X14534250Y47625000D01*
X14693000Y47783750D01*
X14693000Y48474310D01*
X14596327Y48707699D01*
X14417698Y48886327D01*
X14243223Y48958597D01*
X14287147Y48987946D01*
X14434023Y49207762D01*
X14729622Y49266561D01*
X15000515Y49447566D01*
X16846434Y51293485D01*
X17027440Y51564379D01*
X17091000Y51883919D01*
X17091000Y52994132D01*
X17109869Y53013000D01*
X17528256Y53013000D01*
X17360559Y52905090D01*
X17215569Y52692890D01*
X17164560Y52441000D01*
X17164560Y51191000D01*
X17208838Y50955683D01*
X17347910Y50739559D01*
X17560110Y50594569D01*
X17727000Y50560773D01*
X17727000Y50265440D01*
X17692000Y50265440D01*
X17456683Y50221162D01*
X17240559Y50082090D01*
X17095569Y49869890D01*
X17044560Y49618000D01*
X17044560Y47918000D01*
X17088838Y47682683D01*
X17227910Y47466559D01*
X17440110Y47321569D01*
X17692000Y47270560D01*
X19392000Y47270560D01*
X19627317Y47314838D01*
X19843441Y47453910D01*
X19988431Y47666110D01*
X20002086Y47733541D01*
X20031946Y47688853D01*
X20513715Y47366946D01*
X21082000Y47253907D01*
X21359939Y47309193D01*
X21549000Y47120132D01*
X21549000Y43639868D01*
X20148434Y45040434D01*
X20061828Y45098302D01*
X19877541Y45221439D01*
X19558000Y45285000D01*
X6790081Y45285000D01*
X6470540Y45221439D01*
X6286253Y45098302D01*
X6199647Y45040434D01*
X5138423Y43979210D01*
X4661378Y44297961D01*
X4093093Y44411000D01*
X4034907Y44411000D01*
X3466622Y44297961D01*
X2984853Y43976054D01*
X2662946Y43494285D01*
X2549907Y42926000D01*
X2662946Y42357715D01*
X2984853Y41875946D01*
X3325553Y41648298D01*
X3182642Y41581183D01*
X2792355Y41152924D01*
X2622524Y40742890D01*
X2743845Y40513000D01*
X3937000Y40513000D01*
X3937000Y40533000D01*
X4191000Y40533000D01*
X4191000Y40513000D01*
X5384155Y40513000D01*
X5505476Y40742890D01*
X5335645Y41152924D01*
X4945358Y41581183D01*
X4802447Y41648298D01*
X5143147Y41875946D01*
X5290023Y42095762D01*
X5585622Y42154561D01*
X5856515Y42335566D01*
X7135949Y43615000D01*
X19212132Y43615000D01*
X20749000Y42078132D01*
X20749000Y40915209D01*
X20712569Y40861890D01*
X20661560Y40610000D01*
X20661560Y39282440D01*
X19334000Y39282440D01*
X19098683Y39238162D01*
X18882559Y39099090D01*
X18737569Y38886890D01*
X18686560Y38635000D01*
X18686560Y38085000D01*
X18710944Y37955411D01*
X18686560Y37835000D01*
X18686560Y37285000D01*
X18706450Y37179295D01*
X18699000Y37161310D01*
X18699000Y37045750D01*
X18795401Y36949349D01*
X18869910Y36833559D01*
X18977397Y36760116D01*
X18882559Y36699090D01*
X18793505Y36568755D01*
X18699000Y36474250D01*
X18699000Y36358690D01*
X18707468Y36338247D01*
X18686560Y36235000D01*
X18686560Y35685000D01*
X18706450Y35579295D01*
X18699000Y35561310D01*
X18699000Y35445750D01*
X18795401Y35349349D01*
X18869910Y35233559D01*
X18977397Y35160116D01*
X18882559Y35099090D01*
X18793505Y34968755D01*
X18699000Y34874250D01*
X18699000Y34758690D01*
X18707468Y34738247D01*
X18686560Y34635000D01*
X18686560Y34395000D01*
X16061868Y34395000D01*
X16011560Y34445308D01*
X16183441Y34555910D01*
X16328431Y34768110D01*
X16379440Y35020000D01*
X16379440Y42895000D01*
X16335162Y43130317D01*
X16196090Y43346441D01*
X15983890Y43491431D01*
X15732000Y43542440D01*
X13732000Y43542440D01*
X13496683Y43498162D01*
X13280559Y43359090D01*
X13135569Y43146890D01*
X13084560Y42895000D01*
X13084560Y41221000D01*
X11209070Y41221000D01*
X11039000Y41255440D01*
X9789000Y41255440D01*
X9553683Y41211162D01*
X9337559Y41072090D01*
X9192569Y40859890D01*
X9141560Y40608000D01*
X9141560Y39108000D01*
X9185838Y38872683D01*
X9324910Y38656559D01*
X9393006Y38610031D01*
X9250673Y38467698D01*
X9154000Y38234309D01*
X9154000Y37643750D01*
X9312750Y37485000D01*
X10287000Y37485000D01*
X10287000Y37505000D01*
X10541000Y37505000D01*
X10541000Y37485000D01*
X11515250Y37485000D01*
X11674000Y37643750D01*
X11674000Y38234309D01*
X11577327Y38467698D01*
X11436090Y38608936D01*
X11490441Y38643910D01*
X11635431Y38856110D01*
X11686440Y39108000D01*
X11686440Y39551000D01*
X12957632Y39551000D01*
X13084560Y39424072D01*
X13084560Y35020000D01*
X13128838Y34784683D01*
X13267910Y34568559D01*
X13480110Y34423569D01*
X13732000Y34372560D01*
X13931102Y34372560D01*
X13960561Y34224459D01*
X14079804Y34046000D01*
X14141566Y33953566D01*
X14948132Y33147000D01*
X14141566Y32340434D01*
X13960561Y32069541D01*
X13897000Y31750000D01*
X13897000Y31667440D01*
X13732000Y31667440D01*
X13496683Y31623162D01*
X13280559Y31484090D01*
X13135569Y31271890D01*
X13084560Y31020000D01*
X13084560Y29910808D01*
X12920934Y30074434D01*
X12867706Y30110000D01*
X12650041Y30255439D01*
X12330500Y30319000D01*
X11416446Y30319000D01*
X11388162Y30469317D01*
X11249090Y30685441D01*
X11180994Y30731969D01*
X11323327Y30874302D01*
X11420000Y31107691D01*
X11420000Y31698250D01*
X11261250Y31857000D01*
X10287000Y31857000D01*
X10287000Y31837000D01*
X10033000Y31837000D01*
X10033000Y31857000D01*
X9058750Y31857000D01*
X8900000Y31698250D01*
X8900000Y31107691D01*
X8996673Y30874302D01*
X9137910Y30733064D01*
X9083559Y30698090D01*
X8938569Y30485890D01*
X8887560Y30234000D01*
X8887560Y28734000D01*
X8931838Y28498683D01*
X9070910Y28282559D01*
X9283110Y28137569D01*
X9535000Y28086560D01*
X10785000Y28086560D01*
X11020317Y28130838D01*
X11236441Y28269910D01*
X11381431Y28482110D01*
X11415227Y28649000D01*
X11984632Y28649000D01*
X13084560Y27549072D01*
X13084560Y23145000D01*
X13128838Y22909683D01*
X13267910Y22693559D01*
X13480110Y22548569D01*
X13732000Y22497560D01*
X15732000Y22497560D01*
X15967317Y22541838D01*
X16183441Y22680910D01*
X16328431Y22893110D01*
X16379440Y23145000D01*
X16379440Y31020000D01*
X16335162Y31255317D01*
X16196090Y31471441D01*
X15983890Y31616431D01*
X15813753Y31650885D01*
X16087868Y31925000D01*
X19028791Y31925000D01*
X19082110Y31888569D01*
X19334000Y31837560D01*
X20661560Y31837560D01*
X20661560Y30510000D01*
X20705838Y30274683D01*
X20844910Y30058559D01*
X21057110Y29913569D01*
X21309000Y29862560D01*
X21549000Y29862560D01*
X21549000Y27589213D01*
X16216060Y22256273D01*
X10414886Y22256273D01*
X10452608Y22387787D01*
X9652000Y23188395D01*
X8851392Y22387787D01*
X8889114Y22256273D01*
X8134595Y22256273D01*
X6815170Y23575698D01*
X8242856Y23575698D01*
X8270638Y23020632D01*
X8429603Y22636857D01*
X8671787Y22567392D01*
X9472395Y23368000D01*
X9831605Y23368000D01*
X10632213Y22567392D01*
X10874397Y22636857D01*
X11061144Y23160302D01*
X11033362Y23715368D01*
X10874397Y24099143D01*
X10632213Y24168608D01*
X9831605Y23368000D01*
X9472395Y23368000D01*
X8671787Y24168608D01*
X8429603Y24099143D01*
X8242856Y23575698D01*
X6815170Y23575698D01*
X6042655Y24348213D01*
X8851392Y24348213D01*
X9652000Y23547605D01*
X10452608Y24348213D01*
X10383143Y24590397D01*
X9859698Y24777144D01*
X9304632Y24749362D01*
X8920857Y24590397D01*
X8851392Y24348213D01*
X6042655Y24348213D01*
X5522807Y24868061D01*
X5578093Y25146000D01*
X5465054Y25714285D01*
X5143147Y26196054D01*
X4802447Y26423702D01*
X4945358Y26490817D01*
X5335645Y26919076D01*
X5505476Y27329110D01*
X5384155Y27559000D01*
X4191000Y27559000D01*
X4191000Y27539000D01*
X3937000Y27539000D01*
X3937000Y27559000D01*
X3917000Y27559000D01*
X3917000Y27813000D01*
X3937000Y27813000D01*
X3937000Y27833000D01*
X4191000Y27833000D01*
X4191000Y27813000D01*
X5384155Y27813000D01*
X5505476Y28042890D01*
X5335645Y28452924D01*
X5059499Y28755937D01*
X5149317Y28772838D01*
X5365441Y28911910D01*
X5510431Y29124110D01*
X5561440Y29376000D01*
X5561440Y31076000D01*
X5517162Y31311317D01*
X5378090Y31527441D01*
X5165890Y31672431D01*
X4914000Y31723440D01*
X3214000Y31723440D01*
X2978683Y31679162D01*
X2762559Y31540090D01*
X2729363Y31491505D01*
X2613000Y31607868D01*
X2613000Y32860309D01*
X8900000Y32860309D01*
X8900000Y32269750D01*
X9058750Y32111000D01*
X10033000Y32111000D01*
X10033000Y33210250D01*
X10287000Y33210250D01*
X10287000Y32111000D01*
X11261250Y32111000D01*
X11420000Y32269750D01*
X11420000Y32860309D01*
X11323327Y33093698D01*
X11144699Y33272327D01*
X10911310Y33369000D01*
X10445750Y33369000D01*
X10287000Y33210250D01*
X10033000Y33210250D01*
X9874250Y33369000D01*
X9408690Y33369000D01*
X9175301Y33272327D01*
X8996673Y33093698D01*
X8900000Y32860309D01*
X2613000Y32860309D01*
X2613000Y36738132D01*
X2620514Y36745646D01*
X2749910Y36544559D01*
X2962110Y36399569D01*
X3214000Y36348560D01*
X4914000Y36348560D01*
X5149317Y36392838D01*
X5365441Y36531910D01*
X5510431Y36744110D01*
X5561440Y36996000D01*
X5561440Y37072250D01*
X9154000Y37072250D01*
X9154000Y36481691D01*
X9250673Y36248302D01*
X9429301Y36069673D01*
X9662690Y35973000D01*
X10128250Y35973000D01*
X10287000Y36131750D01*
X10287000Y37231000D01*
X10541000Y37231000D01*
X10541000Y36131750D01*
X10699750Y35973000D01*
X11165310Y35973000D01*
X11398699Y36069673D01*
X11577327Y36248302D01*
X11674000Y36481691D01*
X11674000Y37072250D01*
X11515250Y37231000D01*
X10541000Y37231000D01*
X10287000Y37231000D01*
X9312750Y37231000D01*
X9154000Y37072250D01*
X5561440Y37072250D01*
X5561440Y38696000D01*
X5517162Y38931317D01*
X5378090Y39147441D01*
X5165890Y39292431D01*
X5057893Y39314301D01*
X5335645Y39619076D01*
X5505476Y40029110D01*
X5384155Y40259000D01*
X4191000Y40259000D01*
X4191000Y40239000D01*
X3937000Y40239000D01*
X3937000Y40259000D01*
X2743845Y40259000D01*
X2622524Y40029110D01*
X2792355Y39619076D01*
X3068501Y39316063D01*
X2978683Y39299162D01*
X2762559Y39160090D01*
X2617569Y38947890D01*
X2566560Y38696000D01*
X2566560Y38681000D01*
X2540000Y38681000D01*
X2220460Y38617440D01*
X1949566Y38436434D01*
X1187566Y37674434D01*
X1006561Y37403541D01*
X943000Y37084000D01*
X943000Y16276000D01*
X1006561Y15956459D01*
X1187566Y15685566D01*
X2223566Y14649566D01*
X2494459Y14468561D01*
X2566560Y14454219D01*
X2566560Y14390000D01*
X2610838Y14154683D01*
X2749910Y13938559D01*
X2962110Y13793569D01*
X3214000Y13742560D01*
X3229000Y13742560D01*
X3229000Y13462000D01*
X3292561Y13142459D01*
X3396701Y12986603D01*
X3473566Y12871566D01*
X8055000Y8290132D01*
X8055000Y2794000D01*
X8118561Y2474459D01*
X8248713Y2279673D01*
X8299566Y2203566D01*
X9793132Y710000D01*
X710000Y710000D01*
X710000Y4637381D01*
X2590613Y4637381D01*
X2930155Y3815628D01*
X3558321Y3186364D01*
X4379481Y2845389D01*
X5268619Y2844613D01*
X6090372Y3184155D01*
X6719636Y3812321D01*
X7060611Y4633481D01*
X7061387Y5522619D01*
X6721845Y6344372D01*
X6093679Y6973636D01*
X5272519Y7314611D01*
X4383381Y7315387D01*
X3561628Y6975845D01*
X2932364Y6347679D01*
X2591389Y5526519D01*
X2590613Y4637381D01*
X710000Y4637381D01*
X710000Y47212250D01*
X11723000Y47212250D01*
X11723000Y46521690D01*
X11819673Y46288301D01*
X11998302Y46109673D01*
X12231691Y46013000D01*
X12922250Y46013000D01*
X13081000Y46171750D01*
X13081000Y47371000D01*
X13335000Y47371000D01*
X13335000Y46171750D01*
X13493750Y46013000D01*
X14184309Y46013000D01*
X14417698Y46109673D01*
X14596327Y46288301D01*
X14693000Y46521690D01*
X14693000Y47212250D01*
X14534250Y47371000D01*
X13335000Y47371000D01*
X13081000Y47371000D01*
X11881750Y47371000D01*
X11723000Y47212250D01*
X710000Y47212250D01*
X710000Y49595381D01*
X2590613Y49595381D01*
X2930155Y48773628D01*
X3558321Y48144364D01*
X4379481Y47803389D01*
X5268619Y47802613D01*
X6090372Y48142155D01*
X6719636Y48770321D01*
X7060611Y49591481D01*
X7061387Y50480619D01*
X6721845Y51302372D01*
X6093679Y51931636D01*
X5272519Y52272611D01*
X4383381Y52273387D01*
X3561628Y51933845D01*
X2932364Y51305679D01*
X2591389Y50484519D01*
X2590613Y49595381D01*
X710000Y49595381D01*
X710000Y53900000D01*
X12535850Y53900000D01*
X12128853Y53628054D01*
X12128853Y53628054D01*
G37*
X12128853Y53628054D02*
X11806946Y53146285D01*
X11693907Y52578000D01*
X11806946Y52009715D01*
X12128853Y51527946D01*
X12458026Y51308000D01*
X12128853Y51088054D01*
X11806946Y50606285D01*
X11693907Y50038000D01*
X11806946Y49469715D01*
X12128853Y48987946D01*
X12172777Y48958597D01*
X11998302Y48886327D01*
X11819673Y48707699D01*
X11723000Y48474310D01*
X11723000Y47783750D01*
X11881750Y47625000D01*
X13081000Y47625000D01*
X13081000Y47645000D01*
X13335000Y47645000D01*
X13335000Y47625000D01*
X14534250Y47625000D01*
X14693000Y47783750D01*
X14693000Y48474310D01*
X14596327Y48707699D01*
X14417698Y48886327D01*
X14243223Y48958597D01*
X14287147Y48987946D01*
X14434023Y49207762D01*
X14729622Y49266561D01*
X15000515Y49447566D01*
X16846434Y51293485D01*
X17027440Y51564379D01*
X17091000Y51883919D01*
X17091000Y52994132D01*
X17109869Y53013000D01*
X17528256Y53013000D01*
X17360559Y52905090D01*
X17215569Y52692890D01*
X17164560Y52441000D01*
X17164560Y51191000D01*
X17208838Y50955683D01*
X17347910Y50739559D01*
X17560110Y50594569D01*
X17727000Y50560773D01*
X17727000Y50265440D01*
X17692000Y50265440D01*
X17456683Y50221162D01*
X17240559Y50082090D01*
X17095569Y49869890D01*
X17044560Y49618000D01*
X17044560Y47918000D01*
X17088838Y47682683D01*
X17227910Y47466559D01*
X17440110Y47321569D01*
X17692000Y47270560D01*
X19392000Y47270560D01*
X19627317Y47314838D01*
X19843441Y47453910D01*
X19988431Y47666110D01*
X20002086Y47733541D01*
X20031946Y47688853D01*
X20513715Y47366946D01*
X21082000Y47253907D01*
X21359939Y47309193D01*
X21549000Y47120132D01*
X21549000Y43639868D01*
X20148434Y45040434D01*
X20061828Y45098302D01*
X19877541Y45221439D01*
X19558000Y45285000D01*
X6790081Y45285000D01*
X6470540Y45221439D01*
X6286253Y45098302D01*
X6199647Y45040434D01*
X5138423Y43979210D01*
X4661378Y44297961D01*
X4093093Y44411000D01*
X4034907Y44411000D01*
X3466622Y44297961D01*
X2984853Y43976054D01*
X2662946Y43494285D01*
X2549907Y42926000D01*
X2662946Y42357715D01*
X2984853Y41875946D01*
X3325553Y41648298D01*
X3182642Y41581183D01*
X2792355Y41152924D01*
X2622524Y40742890D01*
X2743845Y40513000D01*
X3937000Y40513000D01*
X3937000Y40533000D01*
X4191000Y40533000D01*
X4191000Y40513000D01*
X5384155Y40513000D01*
X5505476Y40742890D01*
X5335645Y41152924D01*
X4945358Y41581183D01*
X4802447Y41648298D01*
X5143147Y41875946D01*
X5290023Y42095762D01*
X5585622Y42154561D01*
X5856515Y42335566D01*
X7135949Y43615000D01*
X19212132Y43615000D01*
X20749000Y42078132D01*
X20749000Y40915209D01*
X20712569Y40861890D01*
X20661560Y40610000D01*
X20661560Y39282440D01*
X19334000Y39282440D01*
X19098683Y39238162D01*
X18882559Y39099090D01*
X18737569Y38886890D01*
X18686560Y38635000D01*
X18686560Y38085000D01*
X18710944Y37955411D01*
X18686560Y37835000D01*
X18686560Y37285000D01*
X18706450Y37179295D01*
X18699000Y37161310D01*
X18699000Y37045750D01*
X18795401Y36949349D01*
X18869910Y36833559D01*
X18977397Y36760116D01*
X18882559Y36699090D01*
X18793505Y36568755D01*
X18699000Y36474250D01*
X18699000Y36358690D01*
X18707468Y36338247D01*
X18686560Y36235000D01*
X18686560Y35685000D01*
X18706450Y35579295D01*
X18699000Y35561310D01*
X18699000Y35445750D01*
X18795401Y35349349D01*
X18869910Y35233559D01*
X18977397Y35160116D01*
X18882559Y35099090D01*
X18793505Y34968755D01*
X18699000Y34874250D01*
X18699000Y34758690D01*
X18707468Y34738247D01*
X18686560Y34635000D01*
X18686560Y34395000D01*
X16061868Y34395000D01*
X16011560Y34445308D01*
X16183441Y34555910D01*
X16328431Y34768110D01*
X16379440Y35020000D01*
X16379440Y42895000D01*
X16335162Y43130317D01*
X16196090Y43346441D01*
X15983890Y43491431D01*
X15732000Y43542440D01*
X13732000Y43542440D01*
X13496683Y43498162D01*
X13280559Y43359090D01*
X13135569Y43146890D01*
X13084560Y42895000D01*
X13084560Y41221000D01*
X11209070Y41221000D01*
X11039000Y41255440D01*
X9789000Y41255440D01*
X9553683Y41211162D01*
X9337559Y41072090D01*
X9192569Y40859890D01*
X9141560Y40608000D01*
X9141560Y39108000D01*
X9185838Y38872683D01*
X9324910Y38656559D01*
X9393006Y38610031D01*
X9250673Y38467698D01*
X9154000Y38234309D01*
X9154000Y37643750D01*
X9312750Y37485000D01*
X10287000Y37485000D01*
X10287000Y37505000D01*
X10541000Y37505000D01*
X10541000Y37485000D01*
X11515250Y37485000D01*
X11674000Y37643750D01*
X11674000Y38234309D01*
X11577327Y38467698D01*
X11436090Y38608936D01*
X11490441Y38643910D01*
X11635431Y38856110D01*
X11686440Y39108000D01*
X11686440Y39551000D01*
X12957632Y39551000D01*
X13084560Y39424072D01*
X13084560Y35020000D01*
X13128838Y34784683D01*
X13267910Y34568559D01*
X13480110Y34423569D01*
X13732000Y34372560D01*
X13931102Y34372560D01*
X13960561Y34224459D01*
X14079804Y34046000D01*
X14141566Y33953566D01*
X14948132Y33147000D01*
X14141566Y32340434D01*
X13960561Y32069541D01*
X13897000Y31750000D01*
X13897000Y31667440D01*
X13732000Y31667440D01*
X13496683Y31623162D01*
X13280559Y31484090D01*
X13135569Y31271890D01*
X13084560Y31020000D01*
X13084560Y29910808D01*
X12920934Y30074434D01*
X12867706Y30110000D01*
X12650041Y30255439D01*
X12330500Y30319000D01*
X11416446Y30319000D01*
X11388162Y30469317D01*
X11249090Y30685441D01*
X11180994Y30731969D01*
X11323327Y30874302D01*
X11420000Y31107691D01*
X11420000Y31698250D01*
X11261250Y31857000D01*
X10287000Y31857000D01*
X10287000Y31837000D01*
X10033000Y31837000D01*
X10033000Y31857000D01*
X9058750Y31857000D01*
X8900000Y31698250D01*
X8900000Y31107691D01*
X8996673Y30874302D01*
X9137910Y30733064D01*
X9083559Y30698090D01*
X8938569Y30485890D01*
X8887560Y30234000D01*
X8887560Y28734000D01*
X8931838Y28498683D01*
X9070910Y28282559D01*
X9283110Y28137569D01*
X9535000Y28086560D01*
X10785000Y28086560D01*
X11020317Y28130838D01*
X11236441Y28269910D01*
X11381431Y28482110D01*
X11415227Y28649000D01*
X11984632Y28649000D01*
X13084560Y27549072D01*
X13084560Y23145000D01*
X13128838Y22909683D01*
X13267910Y22693559D01*
X13480110Y22548569D01*
X13732000Y22497560D01*
X15732000Y22497560D01*
X15967317Y22541838D01*
X16183441Y22680910D01*
X16328431Y22893110D01*
X16379440Y23145000D01*
X16379440Y31020000D01*
X16335162Y31255317D01*
X16196090Y31471441D01*
X15983890Y31616431D01*
X15813753Y31650885D01*
X16087868Y31925000D01*
X19028791Y31925000D01*
X19082110Y31888569D01*
X19334000Y31837560D01*
X20661560Y31837560D01*
X20661560Y30510000D01*
X20705838Y30274683D01*
X20844910Y30058559D01*
X21057110Y29913569D01*
X21309000Y29862560D01*
X21549000Y29862560D01*
X21549000Y27589213D01*
X16216060Y22256273D01*
X10414886Y22256273D01*
X10452608Y22387787D01*
X9652000Y23188395D01*
X8851392Y22387787D01*
X8889114Y22256273D01*
X8134595Y22256273D01*
X6815170Y23575698D01*
X8242856Y23575698D01*
X8270638Y23020632D01*
X8429603Y22636857D01*
X8671787Y22567392D01*
X9472395Y23368000D01*
X9831605Y23368000D01*
X10632213Y22567392D01*
X10874397Y22636857D01*
X11061144Y23160302D01*
X11033362Y23715368D01*
X10874397Y24099143D01*
X10632213Y24168608D01*
X9831605Y23368000D01*
X9472395Y23368000D01*
X8671787Y24168608D01*
X8429603Y24099143D01*
X8242856Y23575698D01*
X6815170Y23575698D01*
X6042655Y24348213D01*
X8851392Y24348213D01*
X9652000Y23547605D01*
X10452608Y24348213D01*
X10383143Y24590397D01*
X9859698Y24777144D01*
X9304632Y24749362D01*
X8920857Y24590397D01*
X8851392Y24348213D01*
X6042655Y24348213D01*
X5522807Y24868061D01*
X5578093Y25146000D01*
X5465054Y25714285D01*
X5143147Y26196054D01*
X4802447Y26423702D01*
X4945358Y26490817D01*
X5335645Y26919076D01*
X5505476Y27329110D01*
X5384155Y27559000D01*
X4191000Y27559000D01*
X4191000Y27539000D01*
X3937000Y27539000D01*
X3937000Y27559000D01*
X3917000Y27559000D01*
X3917000Y27813000D01*
X3937000Y27813000D01*
X3937000Y27833000D01*
X4191000Y27833000D01*
X4191000Y27813000D01*
X5384155Y27813000D01*
X5505476Y28042890D01*
X5335645Y28452924D01*
X5059499Y28755937D01*
X5149317Y28772838D01*
X5365441Y28911910D01*
X5510431Y29124110D01*
X5561440Y29376000D01*
X5561440Y31076000D01*
X5517162Y31311317D01*
X5378090Y31527441D01*
X5165890Y31672431D01*
X4914000Y31723440D01*
X3214000Y31723440D01*
X2978683Y31679162D01*
X2762559Y31540090D01*
X2729363Y31491505D01*
X2613000Y31607868D01*
X2613000Y32860309D01*
X8900000Y32860309D01*
X8900000Y32269750D01*
X9058750Y32111000D01*
X10033000Y32111000D01*
X10033000Y33210250D01*
X10287000Y33210250D01*
X10287000Y32111000D01*
X11261250Y32111000D01*
X11420000Y32269750D01*
X11420000Y32860309D01*
X11323327Y33093698D01*
X11144699Y33272327D01*
X10911310Y33369000D01*
X10445750Y33369000D01*
X10287000Y33210250D01*
X10033000Y33210250D01*
X9874250Y33369000D01*
X9408690Y33369000D01*
X9175301Y33272327D01*
X8996673Y33093698D01*
X8900000Y32860309D01*
X2613000Y32860309D01*
X2613000Y36738132D01*
X2620514Y36745646D01*
X2749910Y36544559D01*
X2962110Y36399569D01*
X3214000Y36348560D01*
X4914000Y36348560D01*
X5149317Y36392838D01*
X5365441Y36531910D01*
X5510431Y36744110D01*
X5561440Y36996000D01*
X5561440Y37072250D01*
X9154000Y37072250D01*
X9154000Y36481691D01*
X9250673Y36248302D01*
X9429301Y36069673D01*
X9662690Y35973000D01*
X10128250Y35973000D01*
X10287000Y36131750D01*
X10287000Y37231000D01*
X10541000Y37231000D01*
X10541000Y36131750D01*
X10699750Y35973000D01*
X11165310Y35973000D01*
X11398699Y36069673D01*
X11577327Y36248302D01*
X11674000Y36481691D01*
X11674000Y37072250D01*
X11515250Y37231000D01*
X10541000Y37231000D01*
X10287000Y37231000D01*
X9312750Y37231000D01*
X9154000Y37072250D01*
X5561440Y37072250D01*
X5561440Y38696000D01*
X5517162Y38931317D01*
X5378090Y39147441D01*
X5165890Y39292431D01*
X5057893Y39314301D01*
X5335645Y39619076D01*
X5505476Y40029110D01*
X5384155Y40259000D01*
X4191000Y40259000D01*
X4191000Y40239000D01*
X3937000Y40239000D01*
X3937000Y40259000D01*
X2743845Y40259000D01*
X2622524Y40029110D01*
X2792355Y39619076D01*
X3068501Y39316063D01*
X2978683Y39299162D01*
X2762559Y39160090D01*
X2617569Y38947890D01*
X2566560Y38696000D01*
X2566560Y38681000D01*
X2540000Y38681000D01*
X2220460Y38617440D01*
X1949566Y38436434D01*
X1187566Y37674434D01*
X1006561Y37403541D01*
X943000Y37084000D01*
X943000Y16276000D01*
X1006561Y15956459D01*
X1187566Y15685566D01*
X2223566Y14649566D01*
X2494459Y14468561D01*
X2566560Y14454219D01*
X2566560Y14390000D01*
X2610838Y14154683D01*
X2749910Y13938559D01*
X2962110Y13793569D01*
X3214000Y13742560D01*
X3229000Y13742560D01*
X3229000Y13462000D01*
X3292561Y13142459D01*
X3396701Y12986603D01*
X3473566Y12871566D01*
X8055000Y8290132D01*
X8055000Y2794000D01*
X8118561Y2474459D01*
X8248713Y2279673D01*
X8299566Y2203566D01*
X9793132Y710000D01*
X710000Y710000D01*
X710000Y4637381D01*
X2590613Y4637381D01*
X2930155Y3815628D01*
X3558321Y3186364D01*
X4379481Y2845389D01*
X5268619Y2844613D01*
X6090372Y3184155D01*
X6719636Y3812321D01*
X7060611Y4633481D01*
X7061387Y5522619D01*
X6721845Y6344372D01*
X6093679Y6973636D01*
X5272519Y7314611D01*
X4383381Y7315387D01*
X3561628Y6975845D01*
X2932364Y6347679D01*
X2591389Y5526519D01*
X2590613Y4637381D01*
X710000Y4637381D01*
X710000Y47212250D01*
X11723000Y47212250D01*
X11723000Y46521690D01*
X11819673Y46288301D01*
X11998302Y46109673D01*
X12231691Y46013000D01*
X12922250Y46013000D01*
X13081000Y46171750D01*
X13081000Y47371000D01*
X13335000Y47371000D01*
X13335000Y46171750D01*
X13493750Y46013000D01*
X14184309Y46013000D01*
X14417698Y46109673D01*
X14596327Y46288301D01*
X14693000Y46521690D01*
X14693000Y47212250D01*
X14534250Y47371000D01*
X13335000Y47371000D01*
X13081000Y47371000D01*
X11881750Y47371000D01*
X11723000Y47212250D01*
X710000Y47212250D01*
X710000Y49595381D01*
X2590613Y49595381D01*
X2930155Y48773628D01*
X3558321Y48144364D01*
X4379481Y47803389D01*
X5268619Y47802613D01*
X6090372Y48142155D01*
X6719636Y48770321D01*
X7060611Y49591481D01*
X7061387Y50480619D01*
X6721845Y51302372D01*
X6093679Y51931636D01*
X5272519Y52272611D01*
X4383381Y52273387D01*
X3561628Y51933845D01*
X2932364Y51305679D01*
X2591389Y50484519D01*
X2590613Y49595381D01*
X710000Y49595381D01*
X710000Y53900000D01*
X12535850Y53900000D01*
X12128853Y53628054D01*
G36*
X25247067Y26261550D02*
X25517960Y26080545D01*
X25837501Y26016984D01*
X30747544Y26016984D01*
X30607243Y25679100D01*
X30606758Y25123339D01*
X30818990Y24609697D01*
X31211630Y24216371D01*
X31724900Y24003243D01*
X32280661Y24002758D01*
X32794303Y24214990D01*
X33144925Y24565000D01*
X33512401Y24565000D01*
X33433000Y24373310D01*
X33433000Y23907750D01*
X33591750Y23749000D01*
X34691000Y23749000D01*
X34691000Y23769000D01*
X34945000Y23769000D01*
X34945000Y23749000D01*
X34965000Y23749000D01*
X34965000Y23495000D01*
X34945000Y23495000D01*
X34945000Y22520750D01*
X35103750Y22362000D01*
X35694309Y22362000D01*
X35927698Y22458673D01*
X36068936Y22599910D01*
X36103910Y22545559D01*
X36316110Y22400569D01*
X36568000Y22349560D01*
X37409571Y22349560D01*
X38040261Y21718870D01*
X38175708Y21628368D01*
X38311155Y21537865D01*
X38630696Y21474304D01*
X39683039Y21474304D01*
X39901553Y21328298D01*
X39758642Y21261183D01*
X39368355Y20832924D01*
X39198524Y20422890D01*
X39319845Y20193000D01*
X40513000Y20193000D01*
X40513000Y20213000D01*
X40767000Y20213000D01*
X40767000Y20193000D01*
X41960155Y20193000D01*
X42081476Y20422890D01*
X41911645Y20832924D01*
X41521358Y21261183D01*
X41378447Y21328298D01*
X41592016Y21471000D01*
X42455868Y21471000D01*
X42553000Y21373868D01*
X42553000Y15359440D01*
X40936000Y15359440D01*
X40700683Y15315162D01*
X40484559Y15176090D01*
X40389010Y15036250D01*
X40374327Y15071699D01*
X40195698Y15250327D01*
X39962309Y15347000D01*
X38521750Y15347000D01*
X38363000Y15188250D01*
X38363000Y13589000D01*
X38383000Y13589000D01*
X38383000Y13335000D01*
X38363000Y13335000D01*
X38363000Y11735750D01*
X38521750Y11577000D01*
X39962309Y11577000D01*
X40195698Y11673673D01*
X40374327Y11852301D01*
X40389423Y11888747D01*
X40471910Y11760559D01*
X40684110Y11615569D01*
X40936000Y11564560D01*
X41709428Y11564560D01*
X40931868Y10787000D01*
X36830000Y10787000D01*
X36395654Y10700603D01*
X36064812Y10479541D01*
X36027434Y10454566D01*
X31963434Y6390566D01*
X31717397Y6022346D01*
X31631000Y5588000D01*
X31631000Y3088197D01*
X31491499Y2879418D01*
X31133576Y3269966D01*
X30590742Y3523046D01*
X30353000Y3402997D01*
X30353000Y2159000D01*
X30373000Y2159000D01*
X30373000Y1905000D01*
X30353000Y1905000D01*
X30353000Y1885000D01*
X30099000Y1885000D01*
X30099000Y1905000D01*
X30079000Y1905000D01*
X30079000Y2159000D01*
X30099000Y2159000D01*
X30099000Y3402997D01*
X29861258Y3523046D01*
X29318424Y3269966D01*
X29195156Y3135462D01*
X29189162Y3167317D01*
X29050090Y3383441D01*
X28837890Y3528431D01*
X28586000Y3579440D01*
X26786000Y3579440D01*
X26550683Y3535162D01*
X26334559Y3396090D01*
X26189569Y3183890D01*
X26186149Y3167000D01*
X24640440Y3167000D01*
X24640440Y4580000D01*
X24596162Y4815317D01*
X24457090Y5031441D01*
X24388994Y5077969D01*
X24531327Y5220302D01*
X24628000Y5453691D01*
X24628000Y6044250D01*
X24469250Y6203000D01*
X23495000Y6203000D01*
X23495000Y6183000D01*
X23241000Y6183000D01*
X23241000Y6203000D01*
X22266750Y6203000D01*
X22108000Y6044250D01*
X22108000Y5453691D01*
X22204673Y5220302D01*
X22345910Y5079064D01*
X22291559Y5044090D01*
X22146569Y4831890D01*
X22095560Y4580000D01*
X22095560Y3167000D01*
X21709000Y3167000D01*
X21709000Y7206309D01*
X22108000Y7206309D01*
X22108000Y6615750D01*
X22266750Y6457000D01*
X23241000Y6457000D01*
X23241000Y7556250D01*
X23495000Y7556250D01*
X23495000Y6457000D01*
X24469250Y6457000D01*
X24628000Y6615750D01*
X24628000Y7206309D01*
X24531327Y7439698D01*
X24352699Y7618327D01*
X24119310Y7715000D01*
X23653750Y7715000D01*
X23495000Y7556250D01*
X23241000Y7556250D01*
X23082250Y7715000D01*
X22616690Y7715000D01*
X22383301Y7618327D01*
X22204673Y7439698D01*
X22108000Y7206309D01*
X21709000Y7206309D01*
X21709000Y8206778D01*
X21709317Y8206838D01*
X21925441Y8345910D01*
X22070431Y8558110D01*
X22121440Y8810000D01*
X22121440Y11510000D01*
X22077162Y11745317D01*
X21938090Y11961441D01*
X21725890Y12106431D01*
X21474000Y12157440D01*
X19674000Y12157440D01*
X19438683Y12113162D01*
X19222559Y11974090D01*
X19077569Y11761890D01*
X19074919Y11748803D01*
X18938090Y11961441D01*
X18725890Y12106431D01*
X18474000Y12157440D01*
X16674000Y12157440D01*
X16438683Y12113162D01*
X16222559Y11974090D01*
X16077569Y11761890D01*
X16026560Y11510000D01*
X16026560Y8810000D01*
X16070838Y8574683D01*
X16209910Y8358559D01*
X16422110Y8213569D01*
X16439000Y8210149D01*
X16439000Y6453285D01*
X16341185Y6453370D01*
X15556200Y6129020D01*
X14955091Y5528959D01*
X14629372Y4744541D01*
X14628630Y3895185D01*
X14952980Y3110200D01*
X15553041Y2509091D01*
X16337459Y2183372D01*
X17186815Y2182630D01*
X17971800Y2506980D01*
X18572909Y3107041D01*
X18898628Y3891459D01*
X18899370Y4740815D01*
X18709000Y5201544D01*
X18709000Y8206778D01*
X18709317Y8206838D01*
X18925441Y8345910D01*
X19070431Y8558110D01*
X19073081Y8571197D01*
X19209910Y8358559D01*
X19422110Y8213569D01*
X19439000Y8210149D01*
X19439000Y2709652D01*
X18326348Y1597000D01*
X11267868Y1597000D01*
X10681868Y2183000D01*
X11398250Y2183000D01*
X11557000Y2341750D01*
X11557000Y4191000D01*
X11811000Y4191000D01*
X11811000Y2341750D01*
X11969750Y2183000D01*
X13310309Y2183000D01*
X13543698Y2279673D01*
X13722327Y2458301D01*
X13819000Y2691690D01*
X13819000Y4032250D01*
X13660250Y4191000D01*
X11811000Y4191000D01*
X11557000Y4191000D01*
X11537000Y4191000D01*
X11537000Y4445000D01*
X11557000Y4445000D01*
X11557000Y6294250D01*
X11811000Y6294250D01*
X11811000Y4445000D01*
X13660250Y4445000D01*
X13819000Y4603750D01*
X13819000Y5944310D01*
X13722327Y6177699D01*
X13543698Y6356327D01*
X13310309Y6453000D01*
X11969750Y6453000D01*
X11811000Y6294250D01*
X11557000Y6294250D01*
X11398250Y6453000D01*
X10057691Y6453000D01*
X9824302Y6356327D01*
X9725000Y6257026D01*
X9725000Y8636000D01*
X9661440Y8955540D01*
X9480434Y9226434D01*
X5530618Y13176250D01*
X36001000Y13176250D01*
X36001000Y12085690D01*
X36097673Y11852301D01*
X36276302Y11673673D01*
X36509691Y11577000D01*
X37950250Y11577000D01*
X38109000Y11735750D01*
X38109000Y13335000D01*
X36159750Y13335000D01*
X36001000Y13176250D01*
X5530618Y13176250D01*
X4956341Y13750527D01*
X5149317Y13786838D01*
X5365441Y13925910D01*
X5510431Y14138110D01*
X5561440Y14390000D01*
X5561440Y14838310D01*
X36001000Y14838310D01*
X36001000Y13747750D01*
X36159750Y13589000D01*
X38109000Y13589000D01*
X38109000Y15188250D01*
X37950250Y15347000D01*
X36509691Y15347000D01*
X36276302Y15250327D01*
X36097673Y15071699D01*
X36001000Y14838310D01*
X5561440Y14838310D01*
X5561440Y16090000D01*
X5517162Y16325317D01*
X5378090Y16541441D01*
X5165890Y16686431D01*
X5057893Y16708301D01*
X5335645Y17013076D01*
X5457710Y17307787D01*
X8851392Y17307787D01*
X8920857Y17065603D01*
X9444302Y16878856D01*
X9999368Y16906638D01*
X10383143Y17065603D01*
X10452608Y17307787D01*
X9652000Y18108395D01*
X8851392Y17307787D01*
X5457710Y17307787D01*
X5505476Y17423110D01*
X5384155Y17653000D01*
X4191000Y17653000D01*
X4191000Y17633000D01*
X3937000Y17633000D01*
X3937000Y17653000D01*
X3917000Y17653000D01*
X3917000Y17907000D01*
X3937000Y17907000D01*
X3937000Y17927000D01*
X4191000Y17927000D01*
X4191000Y17907000D01*
X5384155Y17907000D01*
X5505476Y18136890D01*
X5356863Y18495698D01*
X8242856Y18495698D01*
X8270638Y17940632D01*
X8429603Y17556857D01*
X8671787Y17487392D01*
X9472395Y18288000D01*
X9831605Y18288000D01*
X10632213Y17487392D01*
X10874397Y17556857D01*
X11061144Y18080302D01*
X11033362Y18635368D01*
X11009905Y18692000D01*
X27794275Y18692000D01*
X27975822Y17779300D01*
X28492825Y17005550D01*
X29266575Y16488547D01*
X30179275Y16307000D01*
X30272725Y16307000D01*
X31185425Y16488547D01*
X31959175Y17005550D01*
X32476178Y17779300D01*
X32657725Y18692000D01*
X32476178Y19604700D01*
X32406414Y19709110D01*
X39198524Y19709110D01*
X39368355Y19299076D01*
X39758642Y18870817D01*
X40283108Y18624514D01*
X40513000Y18745181D01*
X40513000Y19939000D01*
X40767000Y19939000D01*
X40767000Y18745181D01*
X40996892Y18624514D01*
X41521358Y18870817D01*
X41911645Y19299076D01*
X42081476Y19709110D01*
X41960155Y19939000D01*
X40767000Y19939000D01*
X40513000Y19939000D01*
X39319845Y19939000D01*
X39198524Y19709110D01*
X32406414Y19709110D01*
X31959175Y20378450D01*
X31185425Y20895453D01*
X30272725Y21077000D01*
X30179275Y21077000D01*
X29266575Y20895453D01*
X28492825Y20378450D01*
X27975822Y19604700D01*
X27794275Y18692000D01*
X11009905Y18692000D01*
X10874397Y19019143D01*
X10632213Y19088608D01*
X9831605Y18288000D01*
X9472395Y18288000D01*
X8671787Y19088608D01*
X8429603Y19019143D01*
X8242856Y18495698D01*
X5356863Y18495698D01*
X5335645Y18546924D01*
X4945358Y18975183D01*
X4802447Y19042298D01*
X5143147Y19269946D01*
X5286841Y19485000D01*
X8913572Y19485000D01*
X8851392Y19268213D01*
X9652000Y18467605D01*
X10452608Y19268213D01*
X10390428Y19485000D01*
X17078443Y19485000D01*
X17397984Y19548561D01*
X17668877Y19729566D01*
X21275561Y23336250D01*
X33433000Y23336250D01*
X33433000Y22870690D01*
X33529673Y22637301D01*
X33708302Y22458673D01*
X33941691Y22362000D01*
X34532250Y22362000D01*
X34691000Y22520750D01*
X34691000Y23495000D01*
X33591750Y23495000D01*
X33433000Y23336250D01*
X21275561Y23336250D01*
X23774435Y25835123D01*
X23955440Y26106017D01*
X24019000Y26425557D01*
X24019000Y27489617D01*
X25247067Y26261550D01*
X25247067Y26261550D01*
G37*
X25247067Y26261550D02*
X25517960Y26080545D01*
X25837501Y26016984D01*
X30747544Y26016984D01*
X30607243Y25679100D01*
X30606758Y25123339D01*
X30818990Y24609697D01*
X31211630Y24216371D01*
X31724900Y24003243D01*
X32280661Y24002758D01*
X32794303Y24214990D01*
X33144925Y24565000D01*
X33512401Y24565000D01*
X33433000Y24373310D01*
X33433000Y23907750D01*
X33591750Y23749000D01*
X34691000Y23749000D01*
X34691000Y23769000D01*
X34945000Y23769000D01*
X34945000Y23749000D01*
X34965000Y23749000D01*
X34965000Y23495000D01*
X34945000Y23495000D01*
X34945000Y22520750D01*
X35103750Y22362000D01*
X35694309Y22362000D01*
X35927698Y22458673D01*
X36068936Y22599910D01*
X36103910Y22545559D01*
X36316110Y22400569D01*
X36568000Y22349560D01*
X37409571Y22349560D01*
X38040261Y21718870D01*
X38175708Y21628368D01*
X38311155Y21537865D01*
X38630696Y21474304D01*
X39683039Y21474304D01*
X39901553Y21328298D01*
X39758642Y21261183D01*
X39368355Y20832924D01*
X39198524Y20422890D01*
X39319845Y20193000D01*
X40513000Y20193000D01*
X40513000Y20213000D01*
X40767000Y20213000D01*
X40767000Y20193000D01*
X41960155Y20193000D01*
X42081476Y20422890D01*
X41911645Y20832924D01*
X41521358Y21261183D01*
X41378447Y21328298D01*
X41592016Y21471000D01*
X42455868Y21471000D01*
X42553000Y21373868D01*
X42553000Y15359440D01*
X40936000Y15359440D01*
X40700683Y15315162D01*
X40484559Y15176090D01*
X40389010Y15036250D01*
X40374327Y15071699D01*
X40195698Y15250327D01*
X39962309Y15347000D01*
X38521750Y15347000D01*
X38363000Y15188250D01*
X38363000Y13589000D01*
X38383000Y13589000D01*
X38383000Y13335000D01*
X38363000Y13335000D01*
X38363000Y11735750D01*
X38521750Y11577000D01*
X39962309Y11577000D01*
X40195698Y11673673D01*
X40374327Y11852301D01*
X40389423Y11888747D01*
X40471910Y11760559D01*
X40684110Y11615569D01*
X40936000Y11564560D01*
X41709428Y11564560D01*
X40931868Y10787000D01*
X36830000Y10787000D01*
X36395654Y10700603D01*
X36064812Y10479541D01*
X36027434Y10454566D01*
X31963434Y6390566D01*
X31717397Y6022346D01*
X31631000Y5588000D01*
X31631000Y3088197D01*
X31491499Y2879418D01*
X31133576Y3269966D01*
X30590742Y3523046D01*
X30353000Y3402997D01*
X30353000Y2159000D01*
X30373000Y2159000D01*
X30373000Y1905000D01*
X30353000Y1905000D01*
X30353000Y1885000D01*
X30099000Y1885000D01*
X30099000Y1905000D01*
X30079000Y1905000D01*
X30079000Y2159000D01*
X30099000Y2159000D01*
X30099000Y3402997D01*
X29861258Y3523046D01*
X29318424Y3269966D01*
X29195156Y3135462D01*
X29189162Y3167317D01*
X29050090Y3383441D01*
X28837890Y3528431D01*
X28586000Y3579440D01*
X26786000Y3579440D01*
X26550683Y3535162D01*
X26334559Y3396090D01*
X26189569Y3183890D01*
X26186149Y3167000D01*
X24640440Y3167000D01*
X24640440Y4580000D01*
X24596162Y4815317D01*
X24457090Y5031441D01*
X24388994Y5077969D01*
X24531327Y5220302D01*
X24628000Y5453691D01*
X24628000Y6044250D01*
X24469250Y6203000D01*
X23495000Y6203000D01*
X23495000Y6183000D01*
X23241000Y6183000D01*
X23241000Y6203000D01*
X22266750Y6203000D01*
X22108000Y6044250D01*
X22108000Y5453691D01*
X22204673Y5220302D01*
X22345910Y5079064D01*
X22291559Y5044090D01*
X22146569Y4831890D01*
X22095560Y4580000D01*
X22095560Y3167000D01*
X21709000Y3167000D01*
X21709000Y7206309D01*
X22108000Y7206309D01*
X22108000Y6615750D01*
X22266750Y6457000D01*
X23241000Y6457000D01*
X23241000Y7556250D01*
X23495000Y7556250D01*
X23495000Y6457000D01*
X24469250Y6457000D01*
X24628000Y6615750D01*
X24628000Y7206309D01*
X24531327Y7439698D01*
X24352699Y7618327D01*
X24119310Y7715000D01*
X23653750Y7715000D01*
X23495000Y7556250D01*
X23241000Y7556250D01*
X23082250Y7715000D01*
X22616690Y7715000D01*
X22383301Y7618327D01*
X22204673Y7439698D01*
X22108000Y7206309D01*
X21709000Y7206309D01*
X21709000Y8206778D01*
X21709317Y8206838D01*
X21925441Y8345910D01*
X22070431Y8558110D01*
X22121440Y8810000D01*
X22121440Y11510000D01*
X22077162Y11745317D01*
X21938090Y11961441D01*
X21725890Y12106431D01*
X21474000Y12157440D01*
X19674000Y12157440D01*
X19438683Y12113162D01*
X19222559Y11974090D01*
X19077569Y11761890D01*
X19074919Y11748803D01*
X18938090Y11961441D01*
X18725890Y12106431D01*
X18474000Y12157440D01*
X16674000Y12157440D01*
X16438683Y12113162D01*
X16222559Y11974090D01*
X16077569Y11761890D01*
X16026560Y11510000D01*
X16026560Y8810000D01*
X16070838Y8574683D01*
X16209910Y8358559D01*
X16422110Y8213569D01*
X16439000Y8210149D01*
X16439000Y6453285D01*
X16341185Y6453370D01*
X15556200Y6129020D01*
X14955091Y5528959D01*
X14629372Y4744541D01*
X14628630Y3895185D01*
X14952980Y3110200D01*
X15553041Y2509091D01*
X16337459Y2183372D01*
X17186815Y2182630D01*
X17971800Y2506980D01*
X18572909Y3107041D01*
X18898628Y3891459D01*
X18899370Y4740815D01*
X18709000Y5201544D01*
X18709000Y8206778D01*
X18709317Y8206838D01*
X18925441Y8345910D01*
X19070431Y8558110D01*
X19073081Y8571197D01*
X19209910Y8358559D01*
X19422110Y8213569D01*
X19439000Y8210149D01*
X19439000Y2709652D01*
X18326348Y1597000D01*
X11267868Y1597000D01*
X10681868Y2183000D01*
X11398250Y2183000D01*
X11557000Y2341750D01*
X11557000Y4191000D01*
X11811000Y4191000D01*
X11811000Y2341750D01*
X11969750Y2183000D01*
X13310309Y2183000D01*
X13543698Y2279673D01*
X13722327Y2458301D01*
X13819000Y2691690D01*
X13819000Y4032250D01*
X13660250Y4191000D01*
X11811000Y4191000D01*
X11557000Y4191000D01*
X11537000Y4191000D01*
X11537000Y4445000D01*
X11557000Y4445000D01*
X11557000Y6294250D01*
X11811000Y6294250D01*
X11811000Y4445000D01*
X13660250Y4445000D01*
X13819000Y4603750D01*
X13819000Y5944310D01*
X13722327Y6177699D01*
X13543698Y6356327D01*
X13310309Y6453000D01*
X11969750Y6453000D01*
X11811000Y6294250D01*
X11557000Y6294250D01*
X11398250Y6453000D01*
X10057691Y6453000D01*
X9824302Y6356327D01*
X9725000Y6257026D01*
X9725000Y8636000D01*
X9661440Y8955540D01*
X9480434Y9226434D01*
X5530618Y13176250D01*
X36001000Y13176250D01*
X36001000Y12085690D01*
X36097673Y11852301D01*
X36276302Y11673673D01*
X36509691Y11577000D01*
X37950250Y11577000D01*
X38109000Y11735750D01*
X38109000Y13335000D01*
X36159750Y13335000D01*
X36001000Y13176250D01*
X5530618Y13176250D01*
X4956341Y13750527D01*
X5149317Y13786838D01*
X5365441Y13925910D01*
X5510431Y14138110D01*
X5561440Y14390000D01*
X5561440Y14838310D01*
X36001000Y14838310D01*
X36001000Y13747750D01*
X36159750Y13589000D01*
X38109000Y13589000D01*
X38109000Y15188250D01*
X37950250Y15347000D01*
X36509691Y15347000D01*
X36276302Y15250327D01*
X36097673Y15071699D01*
X36001000Y14838310D01*
X5561440Y14838310D01*
X5561440Y16090000D01*
X5517162Y16325317D01*
X5378090Y16541441D01*
X5165890Y16686431D01*
X5057893Y16708301D01*
X5335645Y17013076D01*
X5457710Y17307787D01*
X8851392Y17307787D01*
X8920857Y17065603D01*
X9444302Y16878856D01*
X9999368Y16906638D01*
X10383143Y17065603D01*
X10452608Y17307787D01*
X9652000Y18108395D01*
X8851392Y17307787D01*
X5457710Y17307787D01*
X5505476Y17423110D01*
X5384155Y17653000D01*
X4191000Y17653000D01*
X4191000Y17633000D01*
X3937000Y17633000D01*
X3937000Y17653000D01*
X3917000Y17653000D01*
X3917000Y17907000D01*
X3937000Y17907000D01*
X3937000Y17927000D01*
X4191000Y17927000D01*
X4191000Y17907000D01*
X5384155Y17907000D01*
X5505476Y18136890D01*
X5356863Y18495698D01*
X8242856Y18495698D01*
X8270638Y17940632D01*
X8429603Y17556857D01*
X8671787Y17487392D01*
X9472395Y18288000D01*
X9831605Y18288000D01*
X10632213Y17487392D01*
X10874397Y17556857D01*
X11061144Y18080302D01*
X11033362Y18635368D01*
X11009905Y18692000D01*
X27794275Y18692000D01*
X27975822Y17779300D01*
X28492825Y17005550D01*
X29266575Y16488547D01*
X30179275Y16307000D01*
X30272725Y16307000D01*
X31185425Y16488547D01*
X31959175Y17005550D01*
X32476178Y17779300D01*
X32657725Y18692000D01*
X32476178Y19604700D01*
X32406414Y19709110D01*
X39198524Y19709110D01*
X39368355Y19299076D01*
X39758642Y18870817D01*
X40283108Y18624514D01*
X40513000Y18745181D01*
X40513000Y19939000D01*
X40767000Y19939000D01*
X40767000Y18745181D01*
X40996892Y18624514D01*
X41521358Y18870817D01*
X41911645Y19299076D01*
X42081476Y19709110D01*
X41960155Y19939000D01*
X40767000Y19939000D01*
X40513000Y19939000D01*
X39319845Y19939000D01*
X39198524Y19709110D01*
X32406414Y19709110D01*
X31959175Y20378450D01*
X31185425Y20895453D01*
X30272725Y21077000D01*
X30179275Y21077000D01*
X29266575Y20895453D01*
X28492825Y20378450D01*
X27975822Y19604700D01*
X27794275Y18692000D01*
X11009905Y18692000D01*
X10874397Y19019143D01*
X10632213Y19088608D01*
X9831605Y18288000D01*
X9472395Y18288000D01*
X8671787Y19088608D01*
X8429603Y19019143D01*
X8242856Y18495698D01*
X5356863Y18495698D01*
X5335645Y18546924D01*
X4945358Y18975183D01*
X4802447Y19042298D01*
X5143147Y19269946D01*
X5286841Y19485000D01*
X8913572Y19485000D01*
X8851392Y19268213D01*
X9652000Y18467605D01*
X10452608Y19268213D01*
X10390428Y19485000D01*
X17078443Y19485000D01*
X17397984Y19548561D01*
X17668877Y19729566D01*
X21275561Y23336250D01*
X33433000Y23336250D01*
X33433000Y22870690D01*
X33529673Y22637301D01*
X33708302Y22458673D01*
X33941691Y22362000D01*
X34532250Y22362000D01*
X34691000Y22520750D01*
X34691000Y23495000D01*
X33591750Y23495000D01*
X33433000Y23336250D01*
X21275561Y23336250D01*
X23774435Y25835123D01*
X23955440Y26106017D01*
X24019000Y26425557D01*
X24019000Y27489617D01*
X25247067Y26261550D01*
G36*
X42189521Y37861182D02*
X42189521Y27876389D01*
X42128383Y27815251D01*
X42041054Y28254285D01*
X41719147Y28736054D01*
X41378447Y28963702D01*
X41521358Y29030817D01*
X41911645Y29459076D01*
X42081476Y29869110D01*
X41960155Y30099000D01*
X40767000Y30099000D01*
X40767000Y30079000D01*
X40513000Y30079000D01*
X40513000Y30099000D01*
X39319845Y30099000D01*
X39198524Y29869110D01*
X39368355Y29459076D01*
X39758642Y29030817D01*
X39901553Y28963702D01*
X39560853Y28736054D01*
X39238946Y28254285D01*
X39126103Y27686984D01*
X35859171Y27686984D01*
X39757043Y31584856D01*
X39901553Y31488298D01*
X39758642Y31421183D01*
X39368355Y30992924D01*
X39198524Y30582890D01*
X39319845Y30353000D01*
X40513000Y30353000D01*
X40513000Y30373000D01*
X40767000Y30373000D01*
X40767000Y30353000D01*
X41960155Y30353000D01*
X42081476Y30582890D01*
X41911645Y30992924D01*
X41521358Y31421183D01*
X41378447Y31488298D01*
X41719147Y31715946D01*
X42041054Y32197715D01*
X42154093Y32766000D01*
X42041054Y33334285D01*
X41719147Y33816054D01*
X41378447Y34043702D01*
X41521358Y34110817D01*
X41911645Y34539076D01*
X42081476Y34949110D01*
X41960155Y35179000D01*
X40767000Y35179000D01*
X40767000Y35159000D01*
X40513000Y35159000D01*
X40513000Y35179000D01*
X40493000Y35179000D01*
X40493000Y35433000D01*
X40513000Y35433000D01*
X40513000Y35453000D01*
X40767000Y35453000D01*
X40767000Y35433000D01*
X41960155Y35433000D01*
X42081476Y35662890D01*
X41911645Y36072924D01*
X41521358Y36501183D01*
X41378447Y36568298D01*
X41719147Y36795946D01*
X42041054Y37277715D01*
X42154093Y37846000D01*
X42141526Y37909177D01*
X42189521Y37861182D01*
X42189521Y37861182D01*
G37*
X42189521Y37861182D02*
X42189521Y27876389D01*
X42128383Y27815251D01*
X42041054Y28254285D01*
X41719147Y28736054D01*
X41378447Y28963702D01*
X41521358Y29030817D01*
X41911645Y29459076D01*
X42081476Y29869110D01*
X41960155Y30099000D01*
X40767000Y30099000D01*
X40767000Y30079000D01*
X40513000Y30079000D01*
X40513000Y30099000D01*
X39319845Y30099000D01*
X39198524Y29869110D01*
X39368355Y29459076D01*
X39758642Y29030817D01*
X39901553Y28963702D01*
X39560853Y28736054D01*
X39238946Y28254285D01*
X39126103Y27686984D01*
X35859171Y27686984D01*
X39757043Y31584856D01*
X39901553Y31488298D01*
X39758642Y31421183D01*
X39368355Y30992924D01*
X39198524Y30582890D01*
X39319845Y30353000D01*
X40513000Y30353000D01*
X40513000Y30373000D01*
X40767000Y30373000D01*
X40767000Y30353000D01*
X41960155Y30353000D01*
X42081476Y30582890D01*
X41911645Y30992924D01*
X41521358Y31421183D01*
X41378447Y31488298D01*
X41719147Y31715946D01*
X42041054Y32197715D01*
X42154093Y32766000D01*
X42041054Y33334285D01*
X41719147Y33816054D01*
X41378447Y34043702D01*
X41521358Y34110817D01*
X41911645Y34539076D01*
X42081476Y34949110D01*
X41960155Y35179000D01*
X40767000Y35179000D01*
X40767000Y35159000D01*
X40513000Y35159000D01*
X40513000Y35179000D01*
X40493000Y35179000D01*
X40493000Y35433000D01*
X40513000Y35433000D01*
X40513000Y35453000D01*
X40767000Y35453000D01*
X40767000Y35433000D01*
X41960155Y35433000D01*
X42081476Y35662890D01*
X41911645Y36072924D01*
X41521358Y36501183D01*
X41378447Y36568298D01*
X41719147Y36795946D01*
X42041054Y37277715D01*
X42154093Y37846000D01*
X42141526Y37909177D01*
X42189521Y37861182D01*
G36*
X38613628Y52441845D02*
X37984364Y51813679D01*
X37643389Y50992519D01*
X37642613Y50103381D01*
X37982155Y49281628D01*
X38610321Y48652364D01*
X39431481Y48311389D01*
X40320619Y48310613D01*
X41142372Y48650155D01*
X41771636Y49278321D01*
X42112611Y50099481D01*
X42113387Y50988619D01*
X41773845Y51810372D01*
X41145679Y52439636D01*
X40376564Y52759000D01*
X42326132Y52759000D01*
X43107000Y51978132D01*
X43107000Y39305439D01*
X42713266Y39699173D01*
X42573592Y39792500D01*
X42442373Y39880178D01*
X42125000Y39943308D01*
X42125000Y40100250D01*
X41966250Y40259000D01*
X40767000Y40259000D01*
X40767000Y40239000D01*
X40513000Y40239000D01*
X40513000Y40259000D01*
X39313750Y40259000D01*
X39155000Y40100250D01*
X39155000Y39943739D01*
X38288540Y39943739D01*
X37968999Y39880178D01*
X37837780Y39792500D01*
X37698106Y39699173D01*
X36077577Y38078644D01*
X35896572Y37807751D01*
X35833011Y37488210D01*
X35833011Y32695879D01*
X35401000Y32263868D01*
X35401000Y32480250D01*
X35242250Y32639000D01*
X34143000Y32639000D01*
X34143000Y31664750D01*
X34301750Y31506000D01*
X34643132Y31506000D01*
X33400812Y30263680D01*
X33401242Y30756661D01*
X33189010Y31270303D01*
X32839000Y31620925D01*
X32839000Y31669975D01*
X32906302Y31602673D01*
X33139691Y31506000D01*
X33730250Y31506000D01*
X33889000Y31664750D01*
X33889000Y32639000D01*
X33869000Y32639000D01*
X33869000Y32893000D01*
X33889000Y32893000D01*
X33889000Y33867250D01*
X34143000Y33867250D01*
X34143000Y32893000D01*
X35242250Y32893000D01*
X35401000Y33051750D01*
X35401000Y33517310D01*
X35304327Y33750699D01*
X35125698Y33929327D01*
X34892309Y34026000D01*
X34301750Y34026000D01*
X34143000Y33867250D01*
X33889000Y33867250D01*
X33730250Y34026000D01*
X33139691Y34026000D01*
X32906302Y33929327D01*
X32765064Y33788090D01*
X32730090Y33842441D01*
X32517890Y33987431D01*
X32278491Y34035910D01*
X32501317Y34077838D01*
X32717441Y34216910D01*
X32763969Y34285006D01*
X32906302Y34142673D01*
X33139691Y34046000D01*
X33730250Y34046000D01*
X33889000Y34204750D01*
X33889000Y35179000D01*
X34143000Y35179000D01*
X34143000Y34204750D01*
X34301750Y34046000D01*
X34892309Y34046000D01*
X35125698Y34142673D01*
X35304327Y34321301D01*
X35401000Y34554690D01*
X35401000Y35020250D01*
X35242250Y35179000D01*
X34143000Y35179000D01*
X33889000Y35179000D01*
X33869000Y35179000D01*
X33869000Y35433000D01*
X33889000Y35433000D01*
X33889000Y36407250D01*
X34143000Y36407250D01*
X34143000Y35433000D01*
X35242250Y35433000D01*
X35401000Y35591750D01*
X35401000Y36057310D01*
X35304327Y36290699D01*
X35125698Y36469327D01*
X34892309Y36566000D01*
X34301750Y36566000D01*
X34143000Y36407250D01*
X33889000Y36407250D01*
X33730250Y36566000D01*
X33139691Y36566000D01*
X32906302Y36469327D01*
X32765064Y36328090D01*
X32730090Y36382441D01*
X32517890Y36527431D01*
X32266000Y36578440D01*
X30766000Y36578440D01*
X30530683Y36534162D01*
X30314559Y36395090D01*
X30169569Y36182890D01*
X30131520Y35995000D01*
X30069000Y35995000D01*
X30069000Y36087002D01*
X29930600Y36087002D01*
X29974495Y36151245D01*
X30069000Y36245750D01*
X30069000Y36361310D01*
X30060532Y36381753D01*
X30081440Y36485000D01*
X30081440Y37035000D01*
X30057056Y37164589D01*
X30081440Y37285000D01*
X30081440Y37835000D01*
X30057056Y37964589D01*
X30081440Y38085000D01*
X30081440Y38635000D01*
X30037162Y38870317D01*
X29898090Y39086441D01*
X29685890Y39231431D01*
X29469000Y39275352D01*
X29469000Y40367467D01*
X30143960Y41042427D01*
X30179910Y40986559D01*
X30392110Y40841569D01*
X30644000Y40790560D01*
X32644000Y40790560D01*
X32879317Y40834838D01*
X33095441Y40973910D01*
X33240431Y41186110D01*
X33291440Y41438000D01*
X33291440Y42938000D01*
X33247162Y43173317D01*
X33108090Y43389441D01*
X32895890Y43534431D01*
X32644000Y43585440D01*
X30644000Y43585440D01*
X30408683Y43541162D01*
X30192559Y43402090D01*
X30047569Y43189890D01*
X30036208Y43133788D01*
X29945413Y43115728D01*
X29679424Y42938000D01*
X29674520Y42934723D01*
X28043566Y41303769D01*
X27894637Y41080882D01*
X27710890Y41206431D01*
X27459000Y41257440D01*
X26909000Y41257440D01*
X26779411Y41233056D01*
X26659000Y41257440D01*
X26109000Y41257440D01*
X25979411Y41233056D01*
X25859000Y41257440D01*
X25309000Y41257440D01*
X25179411Y41233056D01*
X25059000Y41257440D01*
X24819000Y41257440D01*
X24819000Y42894250D01*
X25410000Y42894250D01*
X25410000Y42303691D01*
X25506673Y42070302D01*
X25685301Y41891673D01*
X25918690Y41795000D01*
X26384250Y41795000D01*
X26543000Y41953750D01*
X26543000Y43053000D01*
X26797000Y43053000D01*
X26797000Y41953750D01*
X26955750Y41795000D01*
X27421310Y41795000D01*
X27654699Y41891673D01*
X27833327Y42070302D01*
X27930000Y42303691D01*
X27930000Y42894250D01*
X27771250Y43053000D01*
X26797000Y43053000D01*
X26543000Y43053000D01*
X25568750Y43053000D01*
X25410000Y42894250D01*
X24819000Y42894250D01*
X24819000Y44212132D01*
X25419621Y44812753D01*
X25441838Y44694683D01*
X25580910Y44478559D01*
X25649006Y44432031D01*
X25506673Y44289698D01*
X25410000Y44056309D01*
X25410000Y43465750D01*
X25568750Y43307000D01*
X26543000Y43307000D01*
X26543000Y43327000D01*
X26797000Y43327000D01*
X26797000Y43307000D01*
X27771250Y43307000D01*
X27930000Y43465750D01*
X27930000Y44056309D01*
X27833327Y44289698D01*
X27692090Y44430936D01*
X27746441Y44465910D01*
X27891431Y44678110D01*
X27942440Y44930000D01*
X27942440Y45061000D01*
X29996560Y45061000D01*
X29996560Y44438000D01*
X30040838Y44202683D01*
X30179910Y43986559D01*
X30392110Y43841569D01*
X30644000Y43790560D01*
X31517000Y43790560D01*
X31517000Y45061000D01*
X31771000Y45061000D01*
X31771000Y43790560D01*
X32644000Y43790560D01*
X32879317Y43834838D01*
X33095441Y43973910D01*
X33240431Y44186110D01*
X33291440Y44438000D01*
X33291440Y45061000D01*
X31771000Y45061000D01*
X31517000Y45061000D01*
X29996560Y45061000D01*
X27942440Y45061000D01*
X27942440Y45938000D01*
X29996560Y45938000D01*
X29996560Y45315000D01*
X31517000Y45315000D01*
X31517000Y46585440D01*
X31771000Y46585440D01*
X31771000Y45315000D01*
X33291440Y45315000D01*
X33291440Y45938000D01*
X33247162Y46173317D01*
X33108090Y46389441D01*
X32895890Y46534431D01*
X32644000Y46585440D01*
X31771000Y46585440D01*
X31517000Y46585440D01*
X30644000Y46585440D01*
X30408683Y46541162D01*
X30192559Y46402090D01*
X30047569Y46189890D01*
X29996560Y45938000D01*
X27942440Y45938000D01*
X27942440Y46430000D01*
X27898162Y46665317D01*
X27759090Y46881441D01*
X27546890Y47026431D01*
X27295000Y47077440D01*
X26997000Y47077440D01*
X26997000Y47545159D01*
X27212054Y47688853D01*
X27439702Y48029553D01*
X27506817Y47886642D01*
X27935076Y47496355D01*
X28345110Y47326524D01*
X28575000Y47447845D01*
X28575000Y48641000D01*
X28829000Y48641000D01*
X28829000Y47447845D01*
X29058890Y47326524D01*
X29468924Y47496355D01*
X29897183Y47886642D01*
X29972000Y48045954D01*
X30046817Y47886642D01*
X30475076Y47496355D01*
X30885110Y47326524D01*
X31115000Y47447845D01*
X31115000Y48641000D01*
X31369000Y48641000D01*
X31369000Y47447845D01*
X31598890Y47326524D01*
X32008924Y47496355D01*
X32437183Y47886642D01*
X32683486Y48411108D01*
X32562819Y48641000D01*
X31369000Y48641000D01*
X31115000Y48641000D01*
X28829000Y48641000D01*
X28575000Y48641000D01*
X28555000Y48641000D01*
X28555000Y48895000D01*
X28575000Y48895000D01*
X28575000Y50088155D01*
X28829000Y50088155D01*
X28829000Y48895000D01*
X31115000Y48895000D01*
X31115000Y50088155D01*
X31369000Y50088155D01*
X31369000Y48895000D01*
X32562819Y48895000D01*
X32683486Y49124892D01*
X32437183Y49649358D01*
X32008924Y50039645D01*
X31598890Y50209476D01*
X31369000Y50088155D01*
X31115000Y50088155D01*
X30885110Y50209476D01*
X30475076Y50039645D01*
X30046817Y49649358D01*
X29972000Y49490046D01*
X29897183Y49649358D01*
X29468924Y50039645D01*
X29058890Y50209476D01*
X28829000Y50088155D01*
X28575000Y50088155D01*
X28345110Y50209476D01*
X27935076Y50039645D01*
X27506817Y49649358D01*
X27439702Y49506447D01*
X27212054Y49847147D01*
X26997000Y49990841D01*
X26997000Y50200132D01*
X27569428Y50772560D01*
X28436000Y50772560D01*
X28671317Y50816838D01*
X28887441Y50955910D01*
X29032431Y51168110D01*
X29045977Y51235000D01*
X32928132Y51235000D01*
X33709000Y50454132D01*
X33709000Y43988000D01*
X33772561Y43668459D01*
X33908007Y43465750D01*
X33953566Y43397566D01*
X35753566Y41597566D01*
X35796560Y41568838D01*
X35796560Y41438000D01*
X35840838Y41202683D01*
X35979910Y40986559D01*
X36192110Y40841569D01*
X36444000Y40790560D01*
X38444000Y40790560D01*
X38679317Y40834838D01*
X38895441Y40973910D01*
X39040431Y41186110D01*
X39076112Y41362310D01*
X39155000Y41362310D01*
X39155000Y40671750D01*
X39313750Y40513000D01*
X40513000Y40513000D01*
X40513000Y41712250D01*
X40767000Y41712250D01*
X40767000Y40513000D01*
X41966250Y40513000D01*
X42125000Y40671750D01*
X42125000Y41362310D01*
X42028327Y41595699D01*
X41849698Y41774327D01*
X41616309Y41871000D01*
X40925750Y41871000D01*
X40767000Y41712250D01*
X40513000Y41712250D01*
X40354250Y41871000D01*
X39663691Y41871000D01*
X39430302Y41774327D01*
X39251673Y41595699D01*
X39155000Y41362310D01*
X39076112Y41362310D01*
X39091440Y41438000D01*
X39091440Y42654572D01*
X39309868Y42873000D01*
X39383554Y42873000D01*
X39411838Y42722683D01*
X39550910Y42506559D01*
X39763110Y42361569D01*
X40015000Y42310560D01*
X41265000Y42310560D01*
X41500317Y42354838D01*
X41716441Y42493910D01*
X41861431Y42706110D01*
X41912440Y42958000D01*
X41912440Y44458000D01*
X41868162Y44693317D01*
X41729090Y44909441D01*
X41660994Y44955969D01*
X41803327Y45098302D01*
X41900000Y45331691D01*
X41900000Y45922250D01*
X41741250Y46081000D01*
X40767000Y46081000D01*
X40767000Y46061000D01*
X40513000Y46061000D01*
X40513000Y46081000D01*
X39538750Y46081000D01*
X39380000Y45922250D01*
X39380000Y45331691D01*
X39476673Y45098302D01*
X39617910Y44957064D01*
X39563559Y44922090D01*
X39418569Y44709890D01*
X39384773Y44543000D01*
X39091440Y44543000D01*
X39091440Y45938000D01*
X39047162Y46173317D01*
X38908090Y46389441D01*
X38695890Y46534431D01*
X38444000Y46585440D01*
X36444000Y46585440D01*
X36208683Y46541162D01*
X35992559Y46402090D01*
X35847569Y46189890D01*
X35796560Y45938000D01*
X35796560Y44438000D01*
X35840838Y44202683D01*
X35979910Y43986559D01*
X36192110Y43841569D01*
X36444000Y43790560D01*
X37865692Y43790560D01*
X37660572Y43585440D01*
X36444000Y43585440D01*
X36208683Y43541162D01*
X36186184Y43526684D01*
X35379000Y44333868D01*
X35379000Y47084309D01*
X39380000Y47084309D01*
X39380000Y46493750D01*
X39538750Y46335000D01*
X40513000Y46335000D01*
X40513000Y47434250D01*
X40767000Y47434250D01*
X40767000Y46335000D01*
X41741250Y46335000D01*
X41900000Y46493750D01*
X41900000Y47084309D01*
X41803327Y47317698D01*
X41624699Y47496327D01*
X41391310Y47593000D01*
X40925750Y47593000D01*
X40767000Y47434250D01*
X40513000Y47434250D01*
X40354250Y47593000D01*
X39888690Y47593000D01*
X39655301Y47496327D01*
X39476673Y47317698D01*
X39380000Y47084309D01*
X35379000Y47084309D01*
X35379000Y50800000D01*
X35315439Y51119541D01*
X35134434Y51390434D01*
X33864434Y52660434D01*
X33735443Y52746623D01*
X33716920Y52759000D01*
X39381200Y52759000D01*
X38613628Y52441845D01*
X38613628Y52441845D01*
G37*
X38613628Y52441845D02*
X37984364Y51813679D01*
X37643389Y50992519D01*
X37642613Y50103381D01*
X37982155Y49281628D01*
X38610321Y48652364D01*
X39431481Y48311389D01*
X40320619Y48310613D01*
X41142372Y48650155D01*
X41771636Y49278321D01*
X42112611Y50099481D01*
X42113387Y50988619D01*
X41773845Y51810372D01*
X41145679Y52439636D01*
X40376564Y52759000D01*
X42326132Y52759000D01*
X43107000Y51978132D01*
X43107000Y39305439D01*
X42713266Y39699173D01*
X42573592Y39792500D01*
X42442373Y39880178D01*
X42125000Y39943308D01*
X42125000Y40100250D01*
X41966250Y40259000D01*
X40767000Y40259000D01*
X40767000Y40239000D01*
X40513000Y40239000D01*
X40513000Y40259000D01*
X39313750Y40259000D01*
X39155000Y40100250D01*
X39155000Y39943739D01*
X38288540Y39943739D01*
X37968999Y39880178D01*
X37837780Y39792500D01*
X37698106Y39699173D01*
X36077577Y38078644D01*
X35896572Y37807751D01*
X35833011Y37488210D01*
X35833011Y32695879D01*
X35401000Y32263868D01*
X35401000Y32480250D01*
X35242250Y32639000D01*
X34143000Y32639000D01*
X34143000Y31664750D01*
X34301750Y31506000D01*
X34643132Y31506000D01*
X33400812Y30263680D01*
X33401242Y30756661D01*
X33189010Y31270303D01*
X32839000Y31620925D01*
X32839000Y31669975D01*
X32906302Y31602673D01*
X33139691Y31506000D01*
X33730250Y31506000D01*
X33889000Y31664750D01*
X33889000Y32639000D01*
X33869000Y32639000D01*
X33869000Y32893000D01*
X33889000Y32893000D01*
X33889000Y33867250D01*
X34143000Y33867250D01*
X34143000Y32893000D01*
X35242250Y32893000D01*
X35401000Y33051750D01*
X35401000Y33517310D01*
X35304327Y33750699D01*
X35125698Y33929327D01*
X34892309Y34026000D01*
X34301750Y34026000D01*
X34143000Y33867250D01*
X33889000Y33867250D01*
X33730250Y34026000D01*
X33139691Y34026000D01*
X32906302Y33929327D01*
X32765064Y33788090D01*
X32730090Y33842441D01*
X32517890Y33987431D01*
X32278491Y34035910D01*
X32501317Y34077838D01*
X32717441Y34216910D01*
X32763969Y34285006D01*
X32906302Y34142673D01*
X33139691Y34046000D01*
X33730250Y34046000D01*
X33889000Y34204750D01*
X33889000Y35179000D01*
X34143000Y35179000D01*
X34143000Y34204750D01*
X34301750Y34046000D01*
X34892309Y34046000D01*
X35125698Y34142673D01*
X35304327Y34321301D01*
X35401000Y34554690D01*
X35401000Y35020250D01*
X35242250Y35179000D01*
X34143000Y35179000D01*
X33889000Y35179000D01*
X33869000Y35179000D01*
X33869000Y35433000D01*
X33889000Y35433000D01*
X33889000Y36407250D01*
X34143000Y36407250D01*
X34143000Y35433000D01*
X35242250Y35433000D01*
X35401000Y35591750D01*
X35401000Y36057310D01*
X35304327Y36290699D01*
X35125698Y36469327D01*
X34892309Y36566000D01*
X34301750Y36566000D01*
X34143000Y36407250D01*
X33889000Y36407250D01*
X33730250Y36566000D01*
X33139691Y36566000D01*
X32906302Y36469327D01*
X32765064Y36328090D01*
X32730090Y36382441D01*
X32517890Y36527431D01*
X32266000Y36578440D01*
X30766000Y36578440D01*
X30530683Y36534162D01*
X30314559Y36395090D01*
X30169569Y36182890D01*
X30131520Y35995000D01*
X30069000Y35995000D01*
X30069000Y36087002D01*
X29930600Y36087002D01*
X29974495Y36151245D01*
X30069000Y36245750D01*
X30069000Y36361310D01*
X30060532Y36381753D01*
X30081440Y36485000D01*
X30081440Y37035000D01*
X30057056Y37164589D01*
X30081440Y37285000D01*
X30081440Y37835000D01*
X30057056Y37964589D01*
X30081440Y38085000D01*
X30081440Y38635000D01*
X30037162Y38870317D01*
X29898090Y39086441D01*
X29685890Y39231431D01*
X29469000Y39275352D01*
X29469000Y40367467D01*
X30143960Y41042427D01*
X30179910Y40986559D01*
X30392110Y40841569D01*
X30644000Y40790560D01*
X32644000Y40790560D01*
X32879317Y40834838D01*
X33095441Y40973910D01*
X33240431Y41186110D01*
X33291440Y41438000D01*
X33291440Y42938000D01*
X33247162Y43173317D01*
X33108090Y43389441D01*
X32895890Y43534431D01*
X32644000Y43585440D01*
X30644000Y43585440D01*
X30408683Y43541162D01*
X30192559Y43402090D01*
X30047569Y43189890D01*
X30036208Y43133788D01*
X29945413Y43115728D01*
X29679424Y42938000D01*
X29674520Y42934723D01*
X28043566Y41303769D01*
X27894637Y41080882D01*
X27710890Y41206431D01*
X27459000Y41257440D01*
X26909000Y41257440D01*
X26779411Y41233056D01*
X26659000Y41257440D01*
X26109000Y41257440D01*
X25979411Y41233056D01*
X25859000Y41257440D01*
X25309000Y41257440D01*
X25179411Y41233056D01*
X25059000Y41257440D01*
X24819000Y41257440D01*
X24819000Y42894250D01*
X25410000Y42894250D01*
X25410000Y42303691D01*
X25506673Y42070302D01*
X25685301Y41891673D01*
X25918690Y41795000D01*
X26384250Y41795000D01*
X26543000Y41953750D01*
X26543000Y43053000D01*
X26797000Y43053000D01*
X26797000Y41953750D01*
X26955750Y41795000D01*
X27421310Y41795000D01*
X27654699Y41891673D01*
X27833327Y42070302D01*
X27930000Y42303691D01*
X27930000Y42894250D01*
X27771250Y43053000D01*
X26797000Y43053000D01*
X26543000Y43053000D01*
X25568750Y43053000D01*
X25410000Y42894250D01*
X24819000Y42894250D01*
X24819000Y44212132D01*
X25419621Y44812753D01*
X25441838Y44694683D01*
X25580910Y44478559D01*
X25649006Y44432031D01*
X25506673Y44289698D01*
X25410000Y44056309D01*
X25410000Y43465750D01*
X25568750Y43307000D01*
X26543000Y43307000D01*
X26543000Y43327000D01*
X26797000Y43327000D01*
X26797000Y43307000D01*
X27771250Y43307000D01*
X27930000Y43465750D01*
X27930000Y44056309D01*
X27833327Y44289698D01*
X27692090Y44430936D01*
X27746441Y44465910D01*
X27891431Y44678110D01*
X27942440Y44930000D01*
X27942440Y45061000D01*
X29996560Y45061000D01*
X29996560Y44438000D01*
X30040838Y44202683D01*
X30179910Y43986559D01*
X30392110Y43841569D01*
X30644000Y43790560D01*
X31517000Y43790560D01*
X31517000Y45061000D01*
X31771000Y45061000D01*
X31771000Y43790560D01*
X32644000Y43790560D01*
X32879317Y43834838D01*
X33095441Y43973910D01*
X33240431Y44186110D01*
X33291440Y44438000D01*
X33291440Y45061000D01*
X31771000Y45061000D01*
X31517000Y45061000D01*
X29996560Y45061000D01*
X27942440Y45061000D01*
X27942440Y45938000D01*
X29996560Y45938000D01*
X29996560Y45315000D01*
X31517000Y45315000D01*
X31517000Y46585440D01*
X31771000Y46585440D01*
X31771000Y45315000D01*
X33291440Y45315000D01*
X33291440Y45938000D01*
X33247162Y46173317D01*
X33108090Y46389441D01*
X32895890Y46534431D01*
X32644000Y46585440D01*
X31771000Y46585440D01*
X31517000Y46585440D01*
X30644000Y46585440D01*
X30408683Y46541162D01*
X30192559Y46402090D01*
X30047569Y46189890D01*
X29996560Y45938000D01*
X27942440Y45938000D01*
X27942440Y46430000D01*
X27898162Y46665317D01*
X27759090Y46881441D01*
X27546890Y47026431D01*
X27295000Y47077440D01*
X26997000Y47077440D01*
X26997000Y47545159D01*
X27212054Y47688853D01*
X27439702Y48029553D01*
X27506817Y47886642D01*
X27935076Y47496355D01*
X28345110Y47326524D01*
X28575000Y47447845D01*
X28575000Y48641000D01*
X28829000Y48641000D01*
X28829000Y47447845D01*
X29058890Y47326524D01*
X29468924Y47496355D01*
X29897183Y47886642D01*
X29972000Y48045954D01*
X30046817Y47886642D01*
X30475076Y47496355D01*
X30885110Y47326524D01*
X31115000Y47447845D01*
X31115000Y48641000D01*
X31369000Y48641000D01*
X31369000Y47447845D01*
X31598890Y47326524D01*
X32008924Y47496355D01*
X32437183Y47886642D01*
X32683486Y48411108D01*
X32562819Y48641000D01*
X31369000Y48641000D01*
X31115000Y48641000D01*
X28829000Y48641000D01*
X28575000Y48641000D01*
X28555000Y48641000D01*
X28555000Y48895000D01*
X28575000Y48895000D01*
X28575000Y50088155D01*
X28829000Y50088155D01*
X28829000Y48895000D01*
X31115000Y48895000D01*
X31115000Y50088155D01*
X31369000Y50088155D01*
X31369000Y48895000D01*
X32562819Y48895000D01*
X32683486Y49124892D01*
X32437183Y49649358D01*
X32008924Y50039645D01*
X31598890Y50209476D01*
X31369000Y50088155D01*
X31115000Y50088155D01*
X30885110Y50209476D01*
X30475076Y50039645D01*
X30046817Y49649358D01*
X29972000Y49490046D01*
X29897183Y49649358D01*
X29468924Y50039645D01*
X29058890Y50209476D01*
X28829000Y50088155D01*
X28575000Y50088155D01*
X28345110Y50209476D01*
X27935076Y50039645D01*
X27506817Y49649358D01*
X27439702Y49506447D01*
X27212054Y49847147D01*
X26997000Y49990841D01*
X26997000Y50200132D01*
X27569428Y50772560D01*
X28436000Y50772560D01*
X28671317Y50816838D01*
X28887441Y50955910D01*
X29032431Y51168110D01*
X29045977Y51235000D01*
X32928132Y51235000D01*
X33709000Y50454132D01*
X33709000Y43988000D01*
X33772561Y43668459D01*
X33908007Y43465750D01*
X33953566Y43397566D01*
X35753566Y41597566D01*
X35796560Y41568838D01*
X35796560Y41438000D01*
X35840838Y41202683D01*
X35979910Y40986559D01*
X36192110Y40841569D01*
X36444000Y40790560D01*
X38444000Y40790560D01*
X38679317Y40834838D01*
X38895441Y40973910D01*
X39040431Y41186110D01*
X39076112Y41362310D01*
X39155000Y41362310D01*
X39155000Y40671750D01*
X39313750Y40513000D01*
X40513000Y40513000D01*
X40513000Y41712250D01*
X40767000Y41712250D01*
X40767000Y40513000D01*
X41966250Y40513000D01*
X42125000Y40671750D01*
X42125000Y41362310D01*
X42028327Y41595699D01*
X41849698Y41774327D01*
X41616309Y41871000D01*
X40925750Y41871000D01*
X40767000Y41712250D01*
X40513000Y41712250D01*
X40354250Y41871000D01*
X39663691Y41871000D01*
X39430302Y41774327D01*
X39251673Y41595699D01*
X39155000Y41362310D01*
X39076112Y41362310D01*
X39091440Y41438000D01*
X39091440Y42654572D01*
X39309868Y42873000D01*
X39383554Y42873000D01*
X39411838Y42722683D01*
X39550910Y42506559D01*
X39763110Y42361569D01*
X40015000Y42310560D01*
X41265000Y42310560D01*
X41500317Y42354838D01*
X41716441Y42493910D01*
X41861431Y42706110D01*
X41912440Y42958000D01*
X41912440Y44458000D01*
X41868162Y44693317D01*
X41729090Y44909441D01*
X41660994Y44955969D01*
X41803327Y45098302D01*
X41900000Y45331691D01*
X41900000Y45922250D01*
X41741250Y46081000D01*
X40767000Y46081000D01*
X40767000Y46061000D01*
X40513000Y46061000D01*
X40513000Y46081000D01*
X39538750Y46081000D01*
X39380000Y45922250D01*
X39380000Y45331691D01*
X39476673Y45098302D01*
X39617910Y44957064D01*
X39563559Y44922090D01*
X39418569Y44709890D01*
X39384773Y44543000D01*
X39091440Y44543000D01*
X39091440Y45938000D01*
X39047162Y46173317D01*
X38908090Y46389441D01*
X38695890Y46534431D01*
X38444000Y46585440D01*
X36444000Y46585440D01*
X36208683Y46541162D01*
X35992559Y46402090D01*
X35847569Y46189890D01*
X35796560Y45938000D01*
X35796560Y44438000D01*
X35840838Y44202683D01*
X35979910Y43986559D01*
X36192110Y43841569D01*
X36444000Y43790560D01*
X37865692Y43790560D01*
X37660572Y43585440D01*
X36444000Y43585440D01*
X36208683Y43541162D01*
X36186184Y43526684D01*
X35379000Y44333868D01*
X35379000Y47084309D01*
X39380000Y47084309D01*
X39380000Y46493750D01*
X39538750Y46335000D01*
X40513000Y46335000D01*
X40513000Y47434250D01*
X40767000Y47434250D01*
X40767000Y46335000D01*
X41741250Y46335000D01*
X41900000Y46493750D01*
X41900000Y47084309D01*
X41803327Y47317698D01*
X41624699Y47496327D01*
X41391310Y47593000D01*
X40925750Y47593000D01*
X40767000Y47434250D01*
X40513000Y47434250D01*
X40354250Y47593000D01*
X39888690Y47593000D01*
X39655301Y47496327D01*
X39476673Y47317698D01*
X39380000Y47084309D01*
X35379000Y47084309D01*
X35379000Y50800000D01*
X35315439Y51119541D01*
X35134434Y51390434D01*
X33864434Y52660434D01*
X33735443Y52746623D01*
X33716920Y52759000D01*
X39381200Y52759000D01*
X38613628Y52441845D01*
G36*
X26909000Y38362560D02*
X27186560Y38362560D01*
X27186560Y38085000D01*
X27210944Y37955411D01*
X27186560Y37835000D01*
X27186560Y37285000D01*
X27210944Y37155411D01*
X27186560Y37035000D01*
X27186560Y36485000D01*
X27206450Y36379295D01*
X27199000Y36361310D01*
X27199000Y36245750D01*
X27295401Y36149349D01*
X27369910Y36033559D01*
X27477397Y35960116D01*
X27382559Y35899090D01*
X27293505Y35768755D01*
X27199000Y35674250D01*
X27199000Y35558690D01*
X27207468Y35538247D01*
X27186560Y35435000D01*
X27186560Y34885000D01*
X27210944Y34755411D01*
X27186560Y34635000D01*
X27186560Y34395000D01*
X22933000Y34395000D01*
X22933000Y35196000D01*
X22869439Y35515541D01*
X22688434Y35786434D01*
X21924434Y36550434D01*
X21858187Y36594699D01*
X21653541Y36731439D01*
X21342537Y36793302D01*
X21385441Y36820910D01*
X21474495Y36951245D01*
X21569000Y37045750D01*
X21569000Y37161310D01*
X21560532Y37181753D01*
X21581440Y37285000D01*
X21581440Y37835000D01*
X21557056Y37964589D01*
X21581440Y38085000D01*
X21581440Y38362560D01*
X21859000Y38362560D01*
X21988589Y38386944D01*
X22109000Y38362560D01*
X22659000Y38362560D01*
X22788589Y38386944D01*
X22909000Y38362560D01*
X23459000Y38362560D01*
X23588589Y38386944D01*
X23709000Y38362560D01*
X24259000Y38362560D01*
X24388589Y38386944D01*
X24509000Y38362560D01*
X25059000Y38362560D01*
X25188589Y38386944D01*
X25309000Y38362560D01*
X25859000Y38362560D01*
X25988589Y38386944D01*
X26109000Y38362560D01*
X26659000Y38362560D01*
X26788589Y38386944D01*
X26909000Y38362560D01*
X26909000Y38362560D01*
G37*
X26909000Y38362560D02*
X27186560Y38362560D01*
X27186560Y38085000D01*
X27210944Y37955411D01*
X27186560Y37835000D01*
X27186560Y37285000D01*
X27210944Y37155411D01*
X27186560Y37035000D01*
X27186560Y36485000D01*
X27206450Y36379295D01*
X27199000Y36361310D01*
X27199000Y36245750D01*
X27295401Y36149349D01*
X27369910Y36033559D01*
X27477397Y35960116D01*
X27382559Y35899090D01*
X27293505Y35768755D01*
X27199000Y35674250D01*
X27199000Y35558690D01*
X27207468Y35538247D01*
X27186560Y35435000D01*
X27186560Y34885000D01*
X27210944Y34755411D01*
X27186560Y34635000D01*
X27186560Y34395000D01*
X22933000Y34395000D01*
X22933000Y35196000D01*
X22869439Y35515541D01*
X22688434Y35786434D01*
X21924434Y36550434D01*
X21858187Y36594699D01*
X21653541Y36731439D01*
X21342537Y36793302D01*
X21385441Y36820910D01*
X21474495Y36951245D01*
X21569000Y37045750D01*
X21569000Y37161310D01*
X21560532Y37181753D01*
X21581440Y37285000D01*
X21581440Y37835000D01*
X21557056Y37964589D01*
X21581440Y38085000D01*
X21581440Y38362560D01*
X21859000Y38362560D01*
X21988589Y38386944D01*
X22109000Y38362560D01*
X22659000Y38362560D01*
X22788589Y38386944D01*
X22909000Y38362560D01*
X23459000Y38362560D01*
X23588589Y38386944D01*
X23709000Y38362560D01*
X24259000Y38362560D01*
X24388589Y38386944D01*
X24509000Y38362560D01*
X25059000Y38362560D01*
X25188589Y38386944D01*
X25309000Y38362560D01*
X25859000Y38362560D01*
X25988589Y38386944D01*
X26109000Y38362560D01*
X26659000Y38362560D01*
X26788589Y38386944D01*
X26909000Y38362560D01*
M02*
